<?xml version="1.0" encoding="UTF-8"?>
<svg id="Layer_1" xmlns="http://www.w3.org/2000/svg" xmlns:x="http://ns.adobe.com/Extensibility/1.0/" version="1.1" viewBox="0 0 100 125">
  <!-- Generator: Adobe Illustrator 30.2.1, SVG Export Plug-In . SVG Version: 2.1.1 Build 1)  -->
  <defs>
    <style>
      .st0 {
        fill: #fdf5e6;
      }
    </style>
  </defs>
  <g>
    <path class="st0" d="M5273.1,2400.1v-2c0-2.8-5-4-9.7-4s-9.7,1.3-9.7,4v2c0,1.8.7,3.6,2,4.9l5,4.9c.3.3.4.6.4,1v6.4c0,.4.2.7.6.8l2.9.9c.5.1,1-.2,1-.8v-7.2c0-.4.2-.7.4-1l5.1-5c1.3-1.3,2-3.1,2-4.9h0ZM5263.4,2400c-4.8,0-7.4-1.3-7.5-1.8h0c.1-.5,2.7-1.8,7.5-1.8s7.3,1.3,7.5,1.8c-.2.5-2.7,1.8-7.5,1.8Z"/>
    <path class="st0" d="M5268.4,2410.3c-.6,0-1,.4-1,1s.4,1,1,1h4.3c.6,0,1-.4,1-1s-.4-1-1-1h-4.3Z"/>
    <path class="st0" d="M5272.7,2413.7h-4.3c-.6,0-1,.4-1,1s.4,1,1,1h4.3c.6,0,1-.4,1-1s-.4-1-1-1Z"/>
    <path class="st0" d="M5272.7,2417h-4.3c-.6,0-1,.4-1,1s.4,1,1,1h4.3c.6,0,1-.4,1-1,0-.5-.4-1-1-1Z"/>
  </g>
  <path class="st0" d="M80.7,45.6c-.9,0-1.8.1-2.7.2-1.4-9.3-9.5-16.5-19.2-16.5-1.9,0-3.8.3-5.6.8-3.9-5.7-10.5-9.4-17.9-9.4-12,0-21.7,9.7-21.7,21.7,0,1.3.1,2.6.4,3.9-6.7,2.4-11.5,8.7-11.5,16.1,0,9.3,7.5,16.8,16.8,16.8h61.5c9.3,0,16.8-7.5,16.8-16.8s-7.6-16.8-16.9-16.8Z"/>
</svg>