<?xml version="1.0" encoding="UTF-8"?>
<svg id="Layer_1" xmlns="http://www.w3.org/2000/svg" version="1.1" viewBox="0 0 100 125">
  <!-- Generator: Adobe Illustrator 30.2.1, SVG Export Plug-In . SVG Version: 2.1.1 Build 1)  -->
  <defs>
    <style>
      .st0 {
        fill: #fdf5e6;
      }
    </style>
  </defs>
  <path class="st0" d="M37.72,57.12c1.6-1.06,3.46-1.7,5.37-1.86.33-.03.65-.04.97-.04.12,0,.22,0,.32,0,.19,0,.37.02.55.03v-.09c.93-8.13,6.57-14.99,14.38-17.46.75-.24,1.52-.44,2.3-.59,1.31-.26,2.65-.39,4-.39.91,0,1.82.06,2.71.18-2.15-8.32-8.48-14.96-16.61-17.54-.9-.29-1.82-.52-2.76-.7-1.55-.3-3.16-.46-4.8-.46-7.52,0-14.26,3.33-18.84,8.59,4.98,1.66,7.03,5.87,7.03,5.87-3.76-3.18-9.03-3.24-9.03-3.24h-.07c-10.69,0-19.35,8.66-19.35,19.35s8.66,19.35,19.35,19.35h9.35c-.05-.45-.08-.9-.08-1.36,0-3.9,1.95-7.51,5.21-9.65Z"/>
  <path class="st0" d="M85.01,47.56c-.43-.11-.88-.2-1.33-.27-.43-.06-.87-.11-1.32-.14-.3-.02-.61-.03-.91-.03h-.05s-3.99.04-6.84,2.45c0,0,1.56-3.18,5.33-4.44-.18-.2-.36-.4-.55-.6-.75-.79-1.57-1.52-2.45-2.18-.75-.56-1.54-1.06-2.37-1.5-1.19-.64-2.45-1.15-3.78-1.52-.33-.09-.66-.18-.99-.25-.33-.07-.66-.14-.99-.19-1.02-.17-2.07-.26-3.14-.26-1.24,0-2.46.12-3.63.35-.71.14-1.41.32-2.09.53-6.98,2.22-12.21,8.38-13.06,15.87.07.04.14.08.2.12.46.26.88.56,1.27.89.61.52,1.15,1.1,1.6,1.69.43.56.79,1.12,1.09,1.63.66,1.15.98,2.04.98,2.04-.37-.74-.85-1.37-1.36-1.89-.58-.59-1.21-1.06-1.78-1.41-1.16-.7-2.12-.96-2.12-.96-.76-.22-1.55-.34-2.37-.36-.09,0-.18,0-.27,0-.27,0-.55.01-.81.03-1.65.14-3.18.69-4.49,1.55-2.62,1.73-4.35,4.7-4.35,8.07,0,.46.04.92.1,1.36.05.32.11.64.18.95.08.32.17.64.28.95,1.34,3.73,4.91,6.4,9.1,6.4h37.38c8.09,0,14.66-6.56,14.66-14.66,0-6.86-4.72-12.63-11.1-14.22Z"/>
</svg>