<?xml version="1.0" encoding="UTF-8"?>
<svg id="Layer_1" xmlns="http://www.w3.org/2000/svg" version="1.1" viewBox="0 0 64 80">
  <!-- Generator: Adobe Illustrator 30.2.1, SVG Export Plug-In . SVG Version: 2.1.1 Build 1)  -->
  <defs>
    <style>
      .st0 {
        fill: #5c7a8d;
      }
    </style>
  </defs>
  <path class="st0" d="M32.74,7.33c-.38-.42-1.11-.42-1.49,0-.75.83-18.26,20.46-18.26,30.67s8.52,19,19,19,19-8.52,19-19S33.49,8.16,32.74,7.33ZM32,49c-6.07,0-11-4.94-11-11,0-.55.45-1,1-1s1,.45,1,1c0,4.96,4.04,9,9,9,.55,0,1,.45,1,1s-.45,1-1,1Z"/>
</svg>