<?xml version="1.0" encoding="UTF-8"?>
<svg id="Layer_1" xmlns="http://www.w3.org/2000/svg" version="1.1" viewBox="0 0 100 125">
  <!-- Generator: Adobe Illustrator 30.2.1, SVG Export Plug-In . SVG Version: 2.1.1 Build 1)  -->
  <defs>
    <style>
      .st0 {
        fill: none;
      }

      .st1 {
        fill: #d99a8c;
      }

      .st2 {
        fill-rule: evenodd;
      }

      .st3 {
        display: none;
      }
    </style>
  </defs>
  <g class="st3">
    <path d="M56.91,11.95c-.24.25-1.14-.06-2.2-.43-2.12-.74-5.9-1.95-9.85-4.27-1.19-.7-2.2-1.81-3.44-2.65-7.35-4.99-18.42,1.49-22.31,1.31-5.77-.26-14.96,13.91-2.89,26.51,12.07,12.6,9.97,32.55,9.97,32.55,0,0,1.58,33.34,9.98,32.29,0,0,5.51.79,5.25-19.43,0,0,.05-16.15,8.4-15.22,9.45,1.05,12.12,24.67,12.64,30.45,0,0,1.05,4.99,5.78,3.94,0,0,3.11.79,4.42-23.89,0,0-.15-7.27,3.15-17.32,2.79-8.5,8.4-17.06,11.02-33.34,0,0,4.99-21.52-15.22-20.21,0,0-15.81-.61-26.05,4.11l4.56,2.36,4.6,1.97s2.39,1.07,2.2,1.27Z"/>
  </g>
  <g class="st3">
    <path d="M-28.64,24.42v-.02.02Z"/>
    <path d="M-28.57,22.99s0-.04,0-.06h0s0,.04,0,.06Z"/>
    <path d="M-25.66,23.24s0,.08.01.12c0-.04,0-.08-.01-.12Z"/>
    <polygon points="-25.7 22.92 -25.7 22.92 -25.7 22.92 -25.7 22.92"/>
    <path d="M-25.59,24.77c0-.33,0-.63-.02-.9.01.24.02.5.02.79,0,.04,0,.07,0,.11Z"/>
    <path d="M-25.59,24.77h0Z"/>
    <path d="M-25.61,23.72s0,.05,0,.08c0-.03,0-.06,0-.08Z"/>
    <polygon points="-29.09 24.86 -29.09 24.86 -29.08 24.86 -29.09 24.86"/>
    <path d="M-29.1,23.48c-.01.16-.02.32-.02.47v.1c0,.15,0,.28,0,.41,0,.01,0,.02,0,.03,0,.14.01.27.02.37-.03-.39-.06-1.15.04-1.91-.02.13-.03.26-.04.38,0,.05,0,.1-.01.15Z"/>
    <path d="M-25.15,23.52c0-.07-.01-.14-.02-.21-.01-.13-.03-.26-.05-.38,0,0,0-.01,0-.02.04.23.06.5.08.78,0-.06,0-.12,0-.17Z"/>
    <path d="M-25.13,23.91s0-.07,0-.1c.01.27.02.57.02.9,0-.05,0-.1,0-.15,0-.23,0-.44-.01-.64Z"/>
    <path class="st0" d="M-21.24,35.43l-9.94.23c-.13,0-.23.11-.23.24s.11.23.24.23h0l9.94-.23c.13,0,.23-.11.23-.24,0-.13-.08-.23-.24-.23Z"/>
    <path class="st0" d="M-17.69,35.46l-.36-8.86c0-.13-.12-.23-.25-.23-.13,0-.23.11-.23.24l.37,8.94-.38,1.99c-.02.13.06.25.19.28.01,0,.03,0,.05,0,.11,0,.21-.08.23-.19l.31-1.61.79.73s.1.06.16.06c.06,0,.13-.03.17-.08.09-.1.08-.25-.01-.33l-1.03-.95Z"/>
    <path d="M-25.13,23.91c0,.2.01.41.01.64,0-.23,0-.44-.01-.64Z"/>
    <path d="M-28.64,24.42s0-.09,0-.14c0,.05,0,.09,0,.14Z"/>
    <path d="M-28.64,23.93c0-.12,0-.24.01-.35,0,.12-.01.24-.01.35Z"/>
    <path d="M-29.11,24.45c0-.12,0-.26,0-.41,0,.15,0,.28,0,.41Z"/>
    <path d="M-25.6,23.16c.02.11.03.23.04.35-.01-.12-.02-.24-.04-.35Z"/>
    <path d="M-29.09,23.33c.01-.16.03-.32.06-.48-.03.16-.04.32-.06.48Z"/>
    <path d="M-25.24,22.79s.02.09.02.14c0-.05-.01-.1-.02-.14Z"/>
    <path d="M-25.17,23.31c0,.07.01.14.02.21,0-.07-.01-.14-.02-.21Z"/>
    <path d="M-29.12,23.95c0-.15,0-.31.02-.47-.01.16-.02.32-.02.47Z"/>
    <path d="M-29.11,24.48c0,.15.01.27.02.37h0c0-.1-.02-.23-.02-.37Z"/>
    <path d="M-25.59,24.66v.11h0s0-.07,0-.11Z"/>
    <path d="M-25.62,23.59c0,.08,0,.17.01.25,0-.08,0-.17-.01-.25Z"/>
    <path d="M90.23,18.8l-26.45.72c-.08-9.13-1.67-14.84-4.83-17.31-1.8-1.4-4.06-1.76-6.72-1.06-4.15,1.1-5.62,6.41-6.08,11.42-.12-.11-.23-.24-.36-.34-1.8-1.4-4.44-1.7-6.72-1.06-3.62,1.03-5.22,4.84-5.88,8.79l-14.75.52-12.12,9.76,5.8,46.99-2.32,20.56h64.42l18.41-8.44-2.41-70.53ZM67.75,77.24l-43.9,1.02h-.02c-.57,0-1.03-.46-1.04-1.03-.01-.57.44-1.04,1.02-1.06l43.9-1.01c.69,0,1.05.44,1.07,1.02.01.57-.44,1.05-1.02,1.06ZM74.57,29.54s-.12-.05-.19-.08c-.02,0-.03.03-.06.03l-62.72,1.62h-.02c-.53,0-.96-.45-.98-1-.01-.58.41-1.06.95-1.08l21.52-.56h0c-.04-.45-.07-1.01-.1-1.65,0-.04,0-.09,0-.14-.02-.55-.03-1.16-.03-1.8,0-.14,0-.28,0-.42,0-.66.03-1.37.08-2.09.01-.22.03-.44.05-.66.04-.56.12-1.13.2-1.7,0-.01,0-.02,0-.03l2.05-.06c-.15.85-.25,1.73-.32,2.61.07-.87.17-1.74.32-2.58.58-3.28,1.83-6.11,4.31-6.77,2.02-.54,3.62-.31,4.9.69.53.41,1.01.96,1.47,1.58-.04,1.74.01,3.28.08,4.46l-10.7.04c-.01.09-.02.18-.03.26-.3,2.14-.35,4.36-.28,6.28,0,.03,0,.05,0,.08.02.66.06,1.28.11,1.85l13.35-.35h0c0-.17,0-.31,0-.48,0-1.28-.03-2.44-.08-3.51,0-.09,0-.2-.01-.29,0-.12-.01-.24-.02-.36-.04-.56-.08-1.09-.13-1.6,0,0,0-.01,0-.02h0s0,0,0,0c0-.03.03-.05.02-.08-.05-.46-.09-1.03-.13-1.62l1.96-.21c-.4-2-1.12-3.66-2.01-5.03.21-5.13,1.28-10.81,4.65-11.7,2.02-.54,3.62-.3,4.9.69,2.61,2.04,3.96,7.36,4.04,15.73l-11.57.31s0,.05.01.08c.08.53.15,1.09.21,1.67.03.31.06.61.09.94.02.24.03.51.04.76,0,.16.01.32.02.48,0,.15.02.3.03.46.04.89.06,1.83.06,2.83,0,.22,0,.45,0,.67,0,.08,0,.15,0,.23l23.67-.61s.05.03.08.03l11.75-6.18c.76-.48,1.47-.36,1.68.14.25.61-.33,1.28-.5,1.37l-12.71,6.77h0ZM88.01,81c-.21.22-.48.34-.77.34-.25,0-.51-.09-.7-.27l-3.51-3.24-1.36,7.1c-.09.5-.53.85-1.02.85-.06,0-.13,0-.2-.02-.56-.1-.93-.66-.83-1.23l1.69-8.81-1.63-39.47c-.02-.57.42-1.06,1-1.08.54-.03,1.06.42,1.09,1l1.61,39.14,4.56,4.2c.42.39.45,1.05.06,1.47Z"/>
  </g>
  <g class="st3">
    <g>
      <path d="M71.82,29.48c-2.12,0-4.5.53-6.88,1.55-.22.09-.37.29-.41.52-.21,1.13-.54,2.19-.9,3.32-.53,1.67-1.07,3.39-1.14,5.3-3.13,2.1-4.84,3.02-7.4,4.67-4.01,2.58-7.88,5.27-10.83,5.28-1.04,0-1.86-.37-2.51-1.13-1.67-1.96-.83-6.79-.27-9.99.13-.78.26-1.48.34-2.07l.17-1.36c.49-3.84.88-6.89,2.08-9.85,2.88-.85,4.78-2.29,5.65-4.28,1.83-4.19-1.18-10.01-3.83-15.14-1.02-1.96-1.98-3.81-2.6-5.43-.07-.18-.21-.33-.39-.4-.18-.08-.38-.06-.55.02l-1.03.49c-.2.09-.34.27-.39.49-.04.21.02.43.16.6,3.7,4.22,1.25,6.77-1.58,9.73-2.31,2.4-4.92,5.13-3.5,8.86.66,1.74,1.65,2.48,2.61,3.2.53.4,1.08.8,1.62,1.41-.73,2.84-1.31,5.71-1.93,8.73-.52,2.57-1.06,5.23-1.71,7.88-.23.95-.46,1.98-.71,3.06-1.04,4.62-2.22,9.86-4.45,13.12-3.32,4.86-6.88,7.78-10.85,11.44-2.98,2.75-5.97,5.56-8.79,8.61-4.08,4.39-6.14,7.87-6.16,8.14,0,.28.16.54.42.65.26.11.55.06.76-.14.05-.05,5.83-4.68,8.21-6.72,4.61-3.94,9.6-8.42,13.59-12.06.72-.65,1.46-1.29,2.12-1.89.23-.21.58-.55.73-.52.06.01-.1.51-.18.82-.22.81-.56,1.95-1,3.36-.87,2.78-1.4,4.52-2.26,7.69-2.55,9.48-4.52,15.32-5.27,19.63-.06.31.17.59.46.7.08.03.16.04.23.04.22,0,.41-.13.57-.29.71-.75,1.91-2.53,3.18-5.22,1.11-2.34,2.28-5.48,3.09-7.65.62-1.68,1.22-3.29,1.9-5.34.56-1.69,1.31-3.56,1.99-5.57,1.57-4.69,3.35-10,5.98-12.96,3.48-3.91,8.03-6.75,12.84-9.76,3.74-2.33,6.6-4.46,11.27-7.83,1.31,1.29,3.18,1.99,5.33,1.99h0c2.97,0,6.03-1.3,7.98-3.38,1.45-1.55,2.15-3.39,2.02-5.31-.3-4.44-3.14-6.99-7.79-6.99ZM36.49,62.18c-.84.4-1.83.05-2.23-.79-.4-.83-.04-1.83.79-2.23.84-.39,1.83-.04,2.23.79.4.84.04,1.84-.79,2.23ZM39.2,19.68c-.65-2.5.61-4.41,1.61-5.06,1.02-.66,2.44-1.03,3.29-.87,1.72.32,3.06,1.25,3.49,2.28.79,1.89.22,3.47-.24,4.27-.9,1.55-2.52,2.38-4.15,2.38-1.67,0-3.46-.94-3.99-3ZM75.19,33.82c.83,1.01,1.51,3.14.83,4.85-.77,1.97-2.62,3.42-4.94,3.54-1.21.06-4.06-.24-4.94-2.99-.36-1.13-.67-4.09,1.95-5.68,4.64-2.81,7.1.28,7.1.28Z"/>
      <path class="st0" d="M35.06,59.16c-.84.4-1.19,1.4-.79,2.23.39.84,1.39,1.19,2.23.79.84-.39,1.19-1.39.79-2.23-.4-.83-1.39-1.19-2.23-.79Z"/>
    </g>
  </g>
  <g class="st3">
    <g>
      <path class="st2" d="M52.45,6.54v83.68h44.35V6.54h-44.35ZM56.39,47.63c-1.23,0-2.22-1-2.22-2.22s.99-2.22,2.22-2.22,2.22,1,2.22,2.22c0,1.22-1,2.22-2.22,2.22ZM72.23,85.37h-11.44v-37.94h11.44v37.94ZM72.23,41.93h-11.44V14.57h11.44v27.36ZM89.74,85.37h-11.43v-37.94h11.43v37.94h0ZM89.74,41.93h-11.43V14.57h11.43v27.36h0Z"/>
      <path class="st0" d="M56.39,43.19c-1.23,0-2.22,1-2.22,2.22s.99,2.22,2.22,2.22,2.22-1,2.22-2.22c0-1.22-1-2.22-2.22-2.22Z"/>
      <rect class="st0" x="60.79" y="47.42" width="11.44" height="37.94"/>
      <rect class="st0" x="78.31" y="47.42" width="11.43" height="37.94"/>
      <rect class="st0" x="78.31" y="14.57" width="11.43" height="27.36"/>
      <rect class="st0" x="60.79" y="14.57" width="11.44" height="27.36"/>
    </g>
    <g>
      <path class="st2" d="M3.8,6.54v83.68h44.35V6.54H3.8ZM41.99,45.41c0-1.22,1-2.22,2.22-2.22s2.22,1,2.22,2.22-.99,2.22-2.22,2.22c-1.22,0-2.22-1-2.22-2.22ZM28.37,47.42h11.44v37.94h-11.44v-37.94ZM28.37,14.57h11.44v27.36h-11.44V14.57ZM10.86,47.42h11.43v37.94h-11.43v-37.94ZM10.86,14.57h11.43v27.36h-11.43V14.57Z"/>
      <path class="st0" d="M44.21,43.19c1.23,0,2.22,1,2.22,2.22s-.99,2.22-2.22,2.22-2.22-1-2.22-2.22,1-2.22,2.22-2.22Z"/>
      <rect class="st0" x="28.37" y="47.42" width="11.44" height="37.94"/>
      <rect class="st0" x="10.86" y="47.42" width="11.43" height="37.94"/>
      <rect class="st0" x="10.86" y="14.57" width="11.43" height="27.36"/>
      <rect class="st0" x="28.37" y="14.57" width="11.44" height="27.36"/>
    </g>
  </g>
  <g class="st3">
    <g>
      <path d="M92.54,18.08c-.57-3.08-3.43-5.12-6.4-4.54L7.36,29.22c-2.97.58-4.92,3.57-4.34,6.67l7.36,40.37c.56,3.1,3.42,5.14,6.4,4.54l78.79-15.66c2.97-.61,4.9-3.58,4.34-6.67l-7.36-40.39ZM49.96,41.86c1.19-.23,2.34.58,2.57,1.83.23,1.24-.55,2.43-1.75,2.67-1.19.22-2.34-.57-2.57-1.82-.22-1.25.55-2.45,1.75-2.69ZM88.54,19.96l-36.14,33.79c-.27.24-.6.37-.94.37-.17,0-.33-.03-.5-.1L7.03,36.53c-.72-.29-1.09-1.14-.81-1.89.28-.76,1.09-1.12,1.82-.84l43.12,17.16,35.51-33.19c.57-.54,1.47-.49,1.98.11.52.61.47,1.54-.1,2.08Z"/>
      <path class="st0" d="M50.78,46.36c1.2-.24,1.98-1.44,1.75-2.67-.23-1.25-1.38-2.06-2.57-1.83-1.2.23-1.97,1.43-1.75,2.69.23,1.25,1.38,2.04,2.57,1.82Z"/>
      <path class="st0" d="M88.64,17.88c-.51-.6-1.41-.65-1.98-.11l-35.51,33.19L8.03,33.8c-.73-.28-1.53.08-1.82.84-.27.75.09,1.6.81,1.89l43.93,17.49c.17.07.33.1.5.1.33,0,.67-.13.94-.37l36.14-33.79c.58-.54.63-1.47.11-2.08Z"/>
    </g>
  </g>
  <g class="st3">
    <g>
      <path d="M35.07,31.95s3.63,2,8.54-.29c4.92-2.3,6.33-12.13,10.04-7.97,0,0,3.92-2.83-1.44-7.85,0,0-2.88-3.44-9.1-2.02-6.23,1.42-8.85,2.62-13,7.75,0,0-2.3,4.04-3.28,5.24-.99,1.2-2.51,5.14-2.41,10.82,0,0-2.29.65-3.17,1.63s1.42-.76,2.51-.76-3.39,2.07-2.95,3.93c.43,1.86.43-.87,1.2-1.2,0,0,.33-1.42,2.84-1.97,2.51-.54-2.52.11-2.19,6.01,0,0-.65,3.71-1.96,5.46-1.31,1.75-.11,2.51,0,3.28.11.76-1.42,2.51-.11,4.59,1.31,2.08-2.51-.33-5.02,4.7,0,0-1.31.98,3.93,9.06l1.86,2.08s-.33-1.31-.22-2.62c0,0,4.81,5.35,7.21,7.43,0,0,2.29,2.62-3.39,4.81,0,0,4.91.65,5.9-3.72,0,0,.66,2.95-3.49,4.15,0,0,4.48.44,6.12-3.5,0,0,3.5,1.86-.33,5.24,0,0,2.62.11,4.92-2.73,2.29-2.84-3.49-7.53-5.46-9.61-1.96-2.08-.55-3.06-.55-3.06,0,0,4.04,1.75,8.74-1.64,0,0-4.15.87-3.82-.54.33-1.42,2.95-2.62,1.96-6.34,0,0-.11-1.42-.66-4.04-.54-2.62-1.2-4.48-2.73-6.55l-.66-.76s1.31-.99.22-4.48c0,0-2.98-1.24-3.07-3.91-.13-4.2,1.79-2.65,1.79-2.65,0,0,1.18-4.66,1.22-7.96Z"/>
      <path d="M70.09,64.94c-.11,1.53-2.95,6.88-6.23,5.14-3.27-1.75-1.64-4.81-1.64-4.81.03-.1.13-.28.23-.46,1,.79,2.85,1.89,4.61.88,1.98-1.13,2.11-3.25,2.11-3.25,0,0,.24-1.88-1.14-2.3-.69-.21-1,.11-1.31.41-.37.35.53-.15,1.01.01.61.21.85.82.43,2.11-.43,1.29-2.88.86-3.6-.57,0,0-.04.03-.06.04l.03-.04c1.67-1.73,1.74-2.08,1.74-2.08.54-.98.87-3.06.33-4.15-.54-1.1-3.39-4.81-3.39-6.22s1.31-8.41,1.31-8.41c0,0,1.75-2.19,1.64-6.56-.1-4.37-4.53-11.91-4.53-11.91-4.27-7.16-9.99-8.48-9.99-8.48.83.44,2.89,2.78,3.98,4.96,1.44,2.89-1.27,5.14-1.27,5.14,6.24,3.81,3.53,14.64,4.54,13.95,1.01-.69,1.27,1.64,1.27,1.64.11,1.23-.96,2.73-1.48,3.97-.59,1.4-1.6,3.57-1.6,5.16,0,3.93-3.6,5.61-3.6,5.61,0,0,1.65,7.48,2.52,9.67.87,2.19,4.7,4.37,4.7,4.37-.22,1.09,2.95,2.51,5.03,2.4,1.48-.08,2.29-.71,2.7-1.18.55-.64,1.27-2.11,1.43-2.59.66-1.9.35-3.98.24-2.46Z"/>
    </g>
  </g>
  <g class="st3">
    <path d="M27.14,39.28s-3.23-3.55-6.55-7.53c-1.17-1.4-2.55-3.19-3.25-4-1.08-1.25-3.17-4-2.78-6.03.53-2.75,3.76-5.51,5.86-7.14,2.43-1.88,8.67-7.17,13.14-2.69,1.06,1.06,4.56,5.64,5.5,6.83,1.99,2.52,5.58,7.31,5.58,7.31l-17.5,13.24Z"/>
    <path d="M-19.42,60.66l-10.67-13.1c-.36-.27-2.11-1.73-2.09-4.18.02-2.65,2.1-5.41,6.18-8.19.18-.18,5.88-5.54,9.79-5.54,1.19,0,2.11.48,2.74,1.41L-1.12,46.82l-18.29,13.84ZM-16.22,30.66c-3.51,0-9.11,5.26-9.16,5.31-3.8,2.6-5.79,5.15-5.8,7.42-.02,2.15,1.71,3.38,1.73,3.4l.1.09,10.1,12.4L-2.54,46.64l-11.75-14.98c-.46-.68-1.08-1-1.93-1Z"/>
    <polyline points="28.33 40.64 67.6 88.66 83.99 75.1 45.83 27.4"/>
    <polygon points="-22.81 43.03 -62.39 -5.38 -61.62 -6.01 -22.67 41.62 -7.04 28.69 -44.89 -18.62 -44.11 -19.25 -5.64 28.83 -22.81 43.03"/>
    <path d="M68.65,90.01l2.13,2.6s-.24,1.42,8.75-6.31l7.25-5.83s1.5-1.1-1.73-4.02l-16.4,13.56Z"/>
    <path d="M-25.47,86.43c-.27,0-.43-.14-.5-.22l-.15-.18v-.04s-2.32-2.84-2.32-2.84l17.12-14.15.32.29c1.54,1.39,2.3,2.62,2.24,3.64-.04.75-.49,1.11-.55,1.15l-7.24,5.82c-7.58,6.52-8.6,6.52-8.93,6.52ZM-27.03,83.29l1.71,2.09c.51-.2,2.29-1.21,8.14-6.24l7.27-5.85s.16-.14.16-.45c0-.38-.21-1.18-1.6-2.52l-15.68,12.96Z"/>
  </g>
  <g class="st3">
    <path d="M76.84,59.55c-2.38-1.23-4.45-2.99-6.28-4.95-1.82-1.97-3.44-4.12-4.87-6.39-1.42-2.28-2.67-4.68-3.51-7.22-.81-2.55-1.4-5.22-1.85-7.84v-.04h0c-.99-.5-2.02-.92-3.08-1.26-1.06-.33-2.16-.6-3.29-.59-.56,0-1.14.08-1.67.31-.53.23-1,.65-1.27,1.17-.53,1.07-.44,2.27-.25,3.36,1,4.33,2.07,8.64,3.82,12.75.89,2.03,1.81,4.08,3.09,5.92,1.26,1.84,2.65,3.57,4.15,5.22,1.49,1.64,3.13,3.22,5.1,4.3.98.55,2.02.98,3.1,1.27.54.14,1.09.25,1.65.31.28.03.56.05.84.06h.42s.21-.01.21-.01h.11s.05-.01.05-.01l.02.02.02-.02h0c.04.2.04-.2.01-.26l.07.02c-1.28-1.02-2.38-2.26-3.4-3.55-.96-1.22-1.86-2.49-2.69-3.8,1.38.76,2.93,1.12,4.46,1.33,1.64.21,3.3.27,4.96.18l.54-.03-.49-.25ZM73.35,65.64h-.01s0,0,0,0c0-.06,0-.09.02,0Z"/>
    <g>
      <g>
        <path d="M44.77,31.29s-.78,4.86-2.33,9.15c-2.22,6.13-9.3,16.75-17.7,20.85,0,0,7.41.4,11.4-1.96,0,0-3.84,5.89-7.53,8.68,0,0,4.67.5,10-3.61,3.2-2.47,8.16-8.15,10.17-11.7,3.3-5.86,4.75-10.48,6.75-17.44,3.07-10.69-10.76-3.95-10.76-3.95Z"/>
        <path d="M29.12,68.27h0c-.57,0-.76,0-.76-.27v-.12l.1-.07c2.8-2.12,5.73-6.1,6.92-7.8-2.97,1.35-7.08,1.56-9.4,1.56-.78,0-1.25-.03-1.25-.03l-.96-.05.86-.42c8.34-4.07,15.41-14.76,17.57-20.71,1.53-4.21,2.31-9.05,2.32-9.1l.02-.13.12-.06c.18-.09,4.39-2.12,7.68-2.12,1.5,0,2.58.43,3.22,1.27.8,1.06.87,2.78.2,5.09-2,6.94-3.45,11.59-6.78,17.49-1.99,3.53-6.96,9.26-10.23,11.78-4.31,3.33-8.18,3.69-9.64,3.69ZM36.94,58.56l-.58.9c-.04.06-3.53,5.39-7.05,8.31,1.53-.03,5.14-.48,9.15-3.58,3.23-2.49,8.13-8.14,10.1-11.63,3.3-5.86,4.74-10.48,6.73-17.39.62-2.16.58-3.72-.12-4.65-.54-.71-1.49-1.08-2.82-1.08-2.91,0-6.72,1.72-7.37,2.02-.13,1.27-1.16,5.9-2.31,9.05-2.11,5.81-8.87,16.11-16.95,20.53.08,0,.17,0,.26,0,2.02,0,7.06-.19,10.04-1.95l.92-.54Z"/>
      </g>
      <g>
        <path d="M44.79,31.31c-.48,3.1-1.15,6.12-2.18,9.06-1.06,2.95-2.6,5.69-4.32,8.3-1.73,2.6-3.68,5.06-5.93,7.24-2.24,2.18-4.73,4.13-7.56,5.51l-.06-.28c1.93.08,3.89,0,5.82-.24,1.91-.26,3.86-.68,5.54-1.64l.28-.16-.18.27c-1.06,1.61-2.21,3.16-3.44,4.64-1.23,1.48-2.54,2.91-4.08,4.1l-.07.05-.02-.02c.04.07.06-.5.03-.27h.01s.03,0,.03,0h.06s.12,0,.12,0h.24s.47-.01.47-.01c.32-.02.63-.05.94-.09.63-.09,1.25-.22,1.86-.39,1.22-.34,2.4-.83,3.51-1.44,2.24-1.21,4.13-2.95,5.9-4.78,1.77-1.84,3.43-3.78,4.94-5.84,1.53-2.03,2.71-4.3,3.82-6.6,2.18-4.61,3.66-9.54,5.05-14.44.26-1.21.41-2.56-.21-3.63-.63-1.09-2.02-1.38-3.25-1.34-2.53.11-5.01.97-7.34,1.99ZM44.76,31.27c1.15-.56,2.35-1.04,3.57-1.44,1.22-.39,2.48-.7,3.78-.75.65-.02,1.31.02,1.94.23.63.2,1.22.61,1.58,1.2.7,1.2.54,2.62.3,3.86-1.32,4.97-2.72,9.92-4.94,14.59-1.11,2.31-2.29,4.63-3.87,6.69-1.54,2.07-3.22,4.01-5.02,5.86-1.79,1.84-3.75,3.58-6.06,4.78-1.14.61-2.35,1.09-3.6,1.42-.62.17-1.26.29-1.91.37-.32.04-.65.07-.97.08h-.49s-.24,0-.24,0h-.12s-.06-.01-.06-.01h-.03s-.02,0-.02,0c-.04.23-.04-.33,0-.27l-.08.03c1.52-1.15,2.84-2.56,4.08-4.02,1.24-1.47,2.4-3,3.47-4.59l.1.11c-1.71.99-3.66,1.44-5.59,1.73-1.94.27-3.9.37-5.86.31l-.59-.02.53-.26c2.77-1.39,5.21-3.35,7.4-5.53,2.17-2.2,4.15-4.6,5.9-7.17,1.73-2.57,3.29-5.27,4.38-8.17,1.04-2.91,1.81-5.96,2.4-8.97v-.03h0Z"/>
        <path d="M55.85,30.38c-.36-.6-.98-1.08-1.71-1.31-.58-.19-1.26-.27-2.03-.24-1.46.06-2.82.44-3.85.77-1.23.4-2.45.89-3.6,1.45l-.12.09-.02.12c-.64,3.28-1.45,6.29-2.39,8.93-.96,2.56-2.34,5.14-4.35,8.12-1.74,2.55-3.72,4.95-5.87,7.13-2.41,2.41-4.78,4.19-7.24,5.44h-.21s.02.1.02.1l-1.31.66,1.45.04.02.1.2-.1c1.96.05,3.92-.05,5.8-.32,1.32-.2,2.96-.51,4.52-1.18-.86,1.21-1.78,2.39-2.73,3.53-1,1.18-2.35,2.67-3.92,3.89l-.09.02-.02.06s-.01.01-.02.02h0s-.65-.41-.65-.41l.41.59-.98.74.85-.29h-.02s.43.04.43.04l.05.07h.08s.05.06.05.06h.02s.17.14.17.14l.04-.24h.27s.49,0,.49,0c.33-.01.66-.04.99-.08.64-.08,1.29-.21,1.94-.38,1.24-.33,2.47-.81,3.65-1.44,2.54-1.32,4.6-3.27,6.12-4.83,1.86-1.91,3.56-3.89,5.04-5.88,1.63-2.13,2.87-4.59,3.89-6.73,2.24-4.71,3.67-9.81,4.96-14.65.25-1.29.41-2.78-.33-4.04ZM50.77,48.85c-1.02,2.12-2.23,4.55-3.84,6.64-.55.74-1.13,1.48-1.74,2.22.6-.74,1.18-1.48,1.72-2.22,1.59-2.12,2.79-4.44,3.84-6.64.7-1.49,1.34-3.02,1.91-4.56-.57,1.55-1.19,3.07-1.9,4.56ZM55.34,34.22c-1.34,4.74-2.84,9.75-5.03,14.4-1.04,2.17-2.22,4.47-3.79,6.56-1.45,1.97-3.1,3.92-4.92,5.81-1.59,1.64-3.53,3.48-5.84,4.73-1.12.61-2.28,1.09-3.45,1.42-.6.17-1.22.3-1.83.38-.26.04-.52.06-.78.08,1.31-1.14,2.42-2.42,3.28-3.44,1.21-1.47,2.36-3.01,3.41-4.6l.21-.12-.08-.08.66-1-1.05.6-.07-.08-.13.19c-1.75.98-3.79,1.35-5.39,1.57-1.38.18-2.81.27-4.25.27,2.1-1.2,4.16-2.79,6.25-4.83,2.12-2.06,4.07-4.44,5.96-7.28,2.01-3.06,3.39-5.71,4.34-8.35.92-2.65,1.63-5.58,2.17-8.97,1.94-.84,4.48-1.8,7.12-1.91h.2c.79,0,2.22.16,2.83,1.21.6,1.03.41,2.39.18,3.44Z"/>
      </g>
    </g>
    <g>
      <path d="M83.94,28.78c-.85-.87-2.51-1.73-2.67-3.84-.08-1.08.43-2.85.67-5.59.42-4.67-1.08-6.18-2.5-7.26-5.7-4.36-9.35,1.17-9.35,1.17-3.5,5.26-4.79,6.45-6.88,8.79-2.89,3.23-6.06,3.76-6.06,3.76l.33,5.02c.78,1.64,4.86,4.83,7.18,5.88,4.38,1.98,8.3,3.57,11.93,3.42,5.9-.24,10.01-1.58,9.85-6.18-.07-1.83-1.26-3.9-2.5-5.17ZM67.51,29.87c-2,.07-4.02-.09-5.95-.66,3.99-.02,7.86.06,11.75-.78-1.76.99-3.81,1.34-5.81,1.45ZM79.73,18.1c-.96,2.11-4.35,4.15-8.35,5.4-4.7,1.47-13.59,3.21-9.22,1.93,5.41-1.58,7.77-2.08,10.22-3.18,1.94-.87,4.87-2.87,5.75-4.38.88-1.5.47-3.33-.62-4-1.74-1.06-6,.62-6,.62,2.25-2.5,5.12-2.75,7-1.25,1.35,1.08,2.12,2.88,1.23,4.85Z"/>
      <path class="st0" d="M67.51,29.87c1.99-.1,4.04-.46,5.81-1.45-3.89.84-7.76.76-11.75.78,1.92.57,3.94.74,5.95.66Z"/>
      <path class="st0" d="M78.5,13.25c-1.88-1.5-4.75-1.25-7,1.25,0,0,4.26-1.69,6-.62,1.1.67,1.5,2.5.62,4-.88,1.5-3.81,3.51-5.75,4.38-2.44,1.1-4.81,1.6-10.22,3.18-4.37,1.28,4.51-.46,9.22-1.93,4-1.25,7.39-3.29,8.35-5.4.9-1.98.12-3.77-1.23-4.85Z"/>
      <path d="M84.12,28.6c-.19-.2-.42-.39-.66-.6-.85-.72-1.82-1.54-1.94-3.09-.04-.55.08-1.32.24-2.3.14-.87.32-1.96.43-3.25.42-4.74-1.12-6.35-2.6-7.48-1.5-1.15-3-1.73-4.46-1.73-3.26,0-5.17,2.84-5.25,2.96-3.02,4.52-4.35,5.99-6.03,7.85-.26.29-.53.59-.82.91-2.79,3.12-5.88,3.67-5.92,3.68l-.22.04.34,5.25.02.09c.82,1.7,4.94,4.93,7.31,6,4.02,1.82,7.93,3.45,11.56,3.45.16,0,.32,0,.48,0,4.8-.19,10.28-1.1,10.09-6.44-.07-2.06-1.43-4.16-2.57-5.34ZM76.59,39.88c-3.69.15-7.68-1.53-11.82-3.4-2.25-1.02-6.23-4.12-7.04-5.72l-.31-4.76c.78-.18,3.48-.98,5.98-3.79.28-.32.55-.61.82-.9,1.63-1.8,3.04-3.36,6.08-7.91.02-.03,1.84-2.73,4.83-2.73,1.35,0,2.75.55,4.16,1.62,1.44,1.1,2.81,2.55,2.41,7.04-.11,1.27-.29,2.35-.43,3.21-.16,1.01-.29,1.81-.25,2.42.14,1.75,1.23,2.68,2.11,3.43.23.2.45.38.63.56,1.17,1.2,2.37,3.22,2.43,5.01.14,3.87-2.73,5.64-9.61,5.92Z"/>
    </g>
    <path d="M48.29,24.16s-2.5-4.92-4.04-7.54c-1.72-2.93-5-10.62-10-11.38-6.82-1.02-11.38,6.38-7.75,12.25.88,1.43.75,2.62-.88,4.75-1.34,1.76-5.81,4.84-5.75,9.38,0,0,1.39,11.45,17.38,4.62,2.44-1.04,4.93-3.16,9.43-4.92,0,0-.28-5.43,1.61-7.16ZM36.71,26.56c-1.9-.63-3.78-1.52-5.21-2.94,3.53,1.85,7.28,2.8,11.12,3.88-2.01.04-4-.34-5.91-.94ZM39.25,19.28c-2.35-1.52-5.15-3.58-6.82-5.03-3.64-3.15-2.78-5.65-1.62-6.79,2.91-2.84,6.51,1.79,4.83.71-2.79-1.8-4.53.46-4.31,2.18.22,1.68,2.94,4.37,4.98,5.89,1.96,1.46,3.22,2.51,7.04,5.48,0,0-1.85-.96-4.11-2.42Z"/>
    <path class="st0" d="M31.34,10.34c-.23-1.72,1.51-3.98,4.31-2.18,1.68,1.08-1.92-3.54-4.83-.71-1.17,1.14-2.02,3.64,1.62,6.79,1.67,1.45,4.47,3.51,6.82,5.03,2.26,1.47,4.11,2.42,4.11,2.42-3.82-2.97-5.08-4.02-7.04-5.48-2.04-1.52-4.76-4.21-4.98-5.88Z"/>
    <path class="st0" d="M36.71,26.56c1.91.6,3.9.98,5.91.94-3.84-1.08-7.59-2.03-11.12-3.88,1.44,1.42,3.32,2.31,5.21,2.94Z"/>
    <path d="M48.6,24.22l-.09-.17s-2.53-4.96-4.04-7.55c-.26-.45-.56-1.01-.9-1.64-1.84-3.44-4.92-9.2-9.28-9.86-3.41-.52-6.61,1.06-8.25,4.02-1.5,2.7-1.41,5.92.25,8.61.74,1.2.82,2.27-.86,4.47-.3.39-.77.86-1.32,1.41-1.81,1.8-4.53,4.53-4.48,8.15,0,.07.94,7.01,8.76,7.02h0c2.54,0,5.55-.74,8.96-2.19,1-.43,1.98-1.02,3.12-1.7,1.7-1.02,3.63-2.17,6.3-3.22l.17-.07v-.18c-.01-.05-.26-5.34,1.52-6.97l.14-.13ZM46.42,31.16c-2.62,1.04-4.53,2.18-6.21,3.19-1.12.67-2.1,1.26-3.06,1.67-3.34,1.43-6.29,2.15-8.76,2.15h0c-7.37,0-8.23-6.31-8.26-6.55-.05-3.38,2.49-5.92,4.34-7.76.56-.56,1.04-1.04,1.36-1.46,1.63-2.14,1.86-3.45.89-5.03-1.57-2.54-1.66-5.57-.24-8.11,1.35-2.42,3.78-3.86,6.52-3.86.4,0,.81.03,1.22.09,4.11.62,7.12,6.24,8.91,9.6.34.64.64,1.2.91,1.66,1.36,2.31,3.5,6.49,3.95,7.36-1.63,1.73-1.59,6.09-1.56,7.05Z"/>
    <path d="M55.5,23.59s-2.43,1.58-3.63.23c0,0-1.46-2.19-3.78-2.08,0,0-3.47-.48-3.22,8.1,0,0,.21,4.85,3.45,4.74,0,0,.8-.15,1.64-1.22,0,0,1.9-1.85,3.88.46,0,0,2.97,3.75,5.18-2.87,0,0,3.29-11.65-3.52-7.36Z"/>
    <path d="M55.51,23.61c-.56.35-1.17.62-1.82.75-.33.06-.67.08-1,0-.33-.06-.65-.24-.89-.49h0c-.88-1.17-2.27-2.03-3.7-1.94h-.04c-.56-.02-1.15.34-1.53.81-.41.47-.69,1.07-.9,1.68-.41,1.24-.58,2.57-.64,3.9-.09,1.33,0,2.67.47,3.92.24.61.58,1.2,1.07,1.62.49.44,1.14.63,1.78.59h-.02c.29-.08.59-.27.85-.47.26-.21.49-.46.69-.73h0s0-.02,0-.02c.4-.37.88-.62,1.41-.73.53-.11,1.11-.02,1.59.22.48.24.9.62,1.22,1,.32.34.71.63,1.13.79.87.35,1.75-.21,2.28-.99.57-.77.95-1.7,1.27-2.63.49-1.89.93-3.89.87-5.86-.03-.49-.1-.98-.29-1.42-.19-.44-.55-.81-1.04-.9-.98-.15-1.94.38-2.78.88ZM55.48,23.57c.84-.52,1.77-1.07,2.83-.96.53.06.98.46,1.21.93.24.47.35.98.41,1.49.12,1.02.04,2.05-.09,3.05-.13,1.01-.33,1.99-.61,3-.33.96-.71,1.93-1.33,2.78-.31.42-.71.82-1.22,1.06-.51.25-1.14.27-1.66.06-.52-.2-.95-.54-1.31-.94-.32-.38-.66-.71-1.07-.93-.81-.48-1.88-.26-2.59.36v-.02c-.21.28-.47.53-.75.75-.29.22-.6.4-.98.49h0s-.01,0-.01,0c-.7.02-1.4-.23-1.91-.7-.52-.46-.85-1.08-1.09-1.71-.24-.63-.4-1.29-.49-1.96-.09-.68-.07-1.34-.08-2.02.01-1.34.1-2.7.5-4.02.21-.65.49-1.3.95-1.85.46-.54,1.13-.97,1.93-.92h-.04c.79-.03,1.58.22,2.23.64.65.42,1.2.96,1.63,1.6h0c.2.23.47.4.78.48.31.09.64.07.96.02.64-.11,1.25-.37,1.81-.7Z"/>
    <path d="M73.84,13.84"/>
    <path d="M-59.22,12.76c1-.08,1.47,3.1,2.3,2.35.5-.45,1.24-1.08,1.73-.94.82.23.88.9,1.14,1.22.97,1.18,1.31-1.86,2.83-1.38,2.87.91-2.4,11.47-1.24,6.98.33-1.28,1.87-5.99,1.27-6.3-.69-.37-1.83,1.52-2.31,1.55-.7.05-1.44-1.43-1.96-1.47-.48-.04-1.19,1.5-1.8,1.45-1.19-.09-1.68-2.88-2.44-2.19-.46.42-.07,3.46.23,4.33.79,2.27.43,3.22-.25.79-1-3.59-1.1-6.26.48-6.39Z"/>
  </g>
  <g class="st3">
    <path d="M71.88,39.87c-4.6,1.9-17.68,2.93-17.68,2.93l-7.13.35s-13.12.29-17.89-1.15-2.41,6.02,0,6.59c0,0,1.26.86,2.69,1.15l4.87,18.92,3.15,15.77s-.74,6.22,11.6,6.04h0c15.53-.25,13.96-7.32,13.96-7.32l1.56-16,2.95-19.31c1.4-.43,2.56-1.41,2.56-1.41,2.33-.81,3.93-8.47-.66-6.56ZM59,64.68s3.56.48,4.24-.77c0,0,.87,1.16,0,3.85,0,0,.02.81-4.72.72,0,0,.87-2.55.48-3.81ZM49.88,68.24s-3.05.34-4.62,0v-3.55s1.67.64,4.62,0c0,0,.32,1.81,0,3.55ZM49.45,62.58s-3.29.37-4.99,0v-3.83s1.8.69,4.99,0c0,0,.35,1.95,0,3.83ZM42.79,50.97s2.11.81,5.85,0c0,0,.41,2.29,0,4.49,0,0-3.86.43-5.85,0v-4.49ZM35.4,55.27l-1.46-5.04c2.72,1.04,6.62.73,6.62.73v4.3c-2.15.98-5.16,0-5.16,0ZM36.91,58.12c2.32.89,5.65.62,5.65.62v3.67c-1.83.83-4.4,0-4.4,0l-1.25-4.3ZM43.5,64.68v3.4c-1.7.77-4.08,0-4.08,0l-1.15-3.98c2.15.83,5.23.58,5.23.58ZM38.99,69.79c2.11.81,5.14.57,5.14.57v3.34c-1.67.76-4,0-4,0l-1.14-3.91ZM39.98,75.7c1.98.76,4.83.53,4.83.53v3.14c-1.57.71-3.76,0-3.76,0l-1.07-3.67ZM45.57,84.29c-1.44.65-3.46,0-3.46,0l-.98-3.38c1.83.7,4.44.49,4.44.49v2.89ZM45.86,70.36s1.64.63,4.54,0c0,0,.31,1.78,0,3.49,0,0-2.99.34-4.54,0v-3.49ZM46.43,76.23s1.54.59,4.26,0c0,0,.3,1.67,0,3.28,0,0-2.81.31-4.26,0v-3.28ZM51,84.42s-2.59.29-3.93,0v-3.02s1.42.54,3.93,0c0,0,.27,1.54,0,3.02ZM51.6,58.74c2.81.73,5.51,0,5.51,0l-.73,3.83c-1.04.61-4.78,0-4.78,0-.42-1.57,0-3.83,0-3.83ZM51.88,64.68c2.6.68,5.1,0,5.1,0l-.67,3.55c-.97.57-4.43,0-4.43,0-.38-1.46,0-3.55,0-3.55ZM56.45,84.42c-.82.48-3.76,0-3.76,0-.33-1.23,0-3.02,0-3.02,2.21.57,4.34,0,4.34,0l-.57,3.02ZM56.62,79.51c-.89.52-4.09,0-4.09,0-.35-1.34,0-3.28,0-3.28,2.4.62,4.71,0,4.71,0l-.62,3.28ZM56.71,73.85c-.94.56-4.35,0-4.35,0-.38-1.43,0-3.49,0-3.49,2.55.66,5.01,0,5.01,0l-.66,3.49ZM56.77,55.46c-1.22.72-5.6,0-5.6,0-.49-1.84,0-4.49,0-4.49,3.29.85,6.46,0,6.46,0l-.85,4.49ZM62.34,84.02s.01.68-4.01.61c0,0,.74-2.17.41-3.23,0,0,3.03.41,3.6-.66,0,0,.74.98,0,3.27ZM63.02,79.08s.01.74-4.35.67c0,0,.8-2.35.44-3.51,0,0,3.29.44,3.91-.71,0,0,.8,1.07,0,3.56ZM63.52,73.39s.02.79-4.63.71c0,0,.85-2.51.47-3.73,0,0,3.5.47,4.16-.76,0,0,.85,1.13,0,3.78ZM63.86,62.07s.02.87-5.09.78c0,0,.94-2.75.52-4.1,0,0,3.85.52,4.57-.83,0,0,.94,1.25,0,4.16ZM65.54,54.87s.02,1.02-5.97.91c0,0,1.1-3.23.61-4.81,0,0,4.51.61,5.36-.98,0,0,1.1,1.46,0,4.87Z"/>
    <path class="st0" d="M44.8,79.37v-3.14s-2.84.23-4.83-.53l1.07,3.67s2.19.71,3.76,0Z"/>
    <path class="st0" d="M50.7,79.51c.3-1.61,0-3.28,0-3.28-2.73.59-4.26,0-4.26,0v3.28c1.45.31,4.26,0,4.26,0Z"/>
    <path class="st0" d="M41.13,80.91l.98,3.38s2.02.65,3.46,0v-2.89s-2.62.21-4.44-.49Z"/>
    <path class="st0" d="M47.07,81.4v3.02c1.33.29,3.93,0,3.93,0,.27-1.48,0-3.02,0-3.02-2.51.54-3.93,0-3.93,0Z"/>
    <path class="st0" d="M52.69,81.4s-.33,1.78,0,3.02c0,0,2.94.48,3.76,0l.57-3.02s-2.13.57-4.34,0Z"/>
    <path class="st0" d="M58.74,81.4c.33,1.06-.41,3.23-.41,3.23,4.02.07,4.01-.61,4.01-.61.74-2.29,0-3.27,0-3.27-.57,1.06-3.6.66-3.6.66Z"/>
    <path class="st0" d="M52.53,76.23s-.35,1.94,0,3.28c0,0,3.2.52,4.09,0l.62-3.28s-2.31.62-4.71,0Z"/>
    <path class="st0" d="M59.11,76.23c.35,1.16-.44,3.51-.44,3.51,4.37.08,4.35-.67,4.35-.67.8-2.49,0-3.56,0-3.56-.62,1.16-3.91.71-3.91.71Z"/>
    <path class="st0" d="M52.36,70.36s-.38,2.06,0,3.49c0,0,3.4.56,4.35,0l.66-3.49s-2.46.66-5.01,0Z"/>
    <path class="st0" d="M38.99,69.79l1.13,3.91s2.33.76,4,0v-3.34s-3.03.24-5.14-.57Z"/>
    <path class="st0" d="M45.86,70.36v3.49c1.54.34,4.54,0,4.54,0,.31-1.71,0-3.49,0-3.49-2.9.63-4.54,0-4.54,0Z"/>
    <path class="st0" d="M38.26,64.11l1.15,3.98s2.38.77,4.08,0v-3.4s-3.08.25-5.23-.58Z"/>
    <path class="st0" d="M45.26,64.68v3.55c1.57.34,4.62,0,4.62,0,.32-1.74,0-3.55,0-3.55-2.95.64-4.62,0-4.62,0Z"/>
    <path class="st0" d="M59.35,70.36c.38,1.23-.47,3.73-.47,3.73,4.65.08,4.63-.71,4.63-.71.85-2.65,0-3.78,0-3.78-.66,1.23-4.16.76-4.16.76Z"/>
    <path class="st0" d="M51.88,64.68s-.38,2.1,0,3.55c0,0,3.47.57,4.43,0l.67-3.55s-2.5.68-5.1,0Z"/>
    <path class="st0" d="M51.6,58.74s-.42,2.26,0,3.83c0,0,3.74.61,4.78,0l.73-3.83s-2.7.73-5.51,0Z"/>
    <path class="st0" d="M44.46,58.74v3.83c1.7.37,4.99,0,4.99,0,.35-1.88,0-3.83,0-3.83-3.19.69-4.99,0-4.99,0Z"/>
    <path class="st0" d="M36.91,58.12l1.25,4.3s2.56.83,4.4,0v-3.67s-3.33.27-5.65-.62Z"/>
    <path class="st0" d="M33.94,50.24l1.46,5.04s3.01.97,5.16,0v-4.3s-3.9.31-6.62-.73Z"/>
    <path class="st0" d="M42.79,50.97v4.49c1.99.43,5.85,0,5.85,0,.41-2.21,0-4.49,0-4.49-3.74.81-5.85,0-5.85,0Z"/>
    <path class="st0" d="M51.16,50.97s-.49,2.65,0,4.49c0,0,4.39.72,5.6,0l.85-4.49s-3.17.85-6.46,0Z"/>
    <path class="st0" d="M59,64.68c.38,1.25-.48,3.81-.48,3.81,4.73.08,4.72-.72,4.72-.72.87-2.69,0-3.85,0-3.85-.67,1.25-4.24.77-4.24.77Z"/>
    <path class="st0" d="M59.28,58.74c.42,1.35-.52,4.1-.52,4.1,5.11.09,5.09-.78,5.09-.78.94-2.91,0-4.16,0-4.16-.73,1.35-4.57.83-4.57.83Z"/>
    <path class="st0" d="M60.18,50.97c.49,1.58-.61,4.81-.61,4.81,5.99.1,5.97-.91,5.97-.91,1.1-3.41,0-4.87,0-4.87-.85,1.59-5.36.98-5.36.98Z"/>
    <path d="M66.63,27.59c-.41,1.24-1.21,2.32-2.11,3.28-.94.93-1.96,1.75-3.2,2.33-1.26.53-2.57.74-3.88.78-1.31.06-2.61-.06-3.87-.34,1.29,0,2.57-.04,3.83-.2,1.25-.18,2.51-.42,3.62-.91,1.08-.53,2.14-1.29,3.08-2.1.95-.82,1.82-1.75,2.53-2.83.29-4.3-6.59-2.01-5.73-5.45.86-3.44-8.31-5.16-6.02-7.17,2.29-2.01-4.59-9.17-2.29-6.02s-6.31,5.73-6.31,5.73c-6.31,2.29-4.87,7.45-4.87,7.45.65.6,1.37,1.06,2.1,1.49.74.42,1.51.76,2.31,1.04,1.59.57,3.27.85,5.02,1.1-1.73.34-3.57.2-5.27-.39-.84-.31-1.66-.72-2.38-1.26-.72-.53-1.36-1.19-1.78-1.98-7.17-.57-7.74,5.73-7.74,5.73-6.31,2.58-3.15,11.47-3.15,11.47,7.73,1.89,14.05,1.87,19.46,1.79,13.45-.2,20.1-4.08,20.1-4.08,3.15-5.45-3.44-9.46-3.44-9.46Z"/>
    <path class="st0" d="M43.19,24.12c.72.54,1.53.95,2.38,1.26,1.7.59,3.54.73,5.27.39-1.75-.25-3.43-.53-5.02-1.1-.8-.28-1.57-.62-2.31-1.04-.73-.42-1.45-.89-2.1-1.49.42.78,1.06,1.44,1.78,1.98Z"/>
    <path class="st0" d="M64.1,30.42c-.94.81-2,1.58-3.08,2.1-1.11.49-2.37.73-3.62.91-1.26.16-2.54.2-3.83.2,1.26.28,2.57.4,3.87.34,1.31-.04,2.62-.25,3.88-.78,1.24-.58,2.26-1.39,3.2-2.33.9-.96,1.7-2.04,2.11-3.28-.71,1.08-1.58,2.01-2.53,2.83Z"/>
  </g>
  <g>
    <path class="st1" d="M42.97,76.4c.12-3.18.9-6.32,1.53-9.49.68-3.16,1.44-6.3,2.28-9.42.81-3.13,1.73-6.24,2.43-9.4,1.19-5.49,1.8-11.17,1.51-16.79,2.38-.51,4.39-1.83,1.9-4.06-2.07-1.86-8.35-.23-7.3,2.69.22.6.92,1.25,1.69,1.47.75.2,2.09.2,3.38-.04-.06,2.35-.21,4.69-.47,7.03-.33,3.2-.87,6.37-1.46,9.54-.58,3.17-1.21,6.34-1.99,9.48-.36,1.5-.75,2.99-1.15,4.48-1.13-5.41-11.56-7.98-11.52-1.35.12,5.75,7.51,1.83,11.3,2.19-.36,1.35-.73,2.7-1.09,4.06-.8,3.12-1.72,6.26-1.91,9.56-.21,3.27.08,6.59.95,9.75,1.66,6.36,5.46,12.08,10.45,16.2l.06-.07c-4.59-4.54-7.99-10.2-9.59-16.37-.79-3.08-1.14-6.27-1.01-9.46Z"/>
    <path class="st1" d="M50.16,25.49c.16-1.84.08-8.55,2.19-7.39,2.5,1.38-1.07,5.07-1.81,7.23l-.38.15Z"/>
    <path class="st1" d="M47.96,25.12c.17-2.03.42-4.98-.53-6.91-.81-1.37-2.7-3.2-3.61-1.23-1.11,2.13,4,5.62,3.72,8.94l.42-.79Z"/>
    <path class="st1" d="M45.86,25.87c-.32-2.81-7.21-13.42-10.48-7.76-3.03,5.12,7.93,6.45,10.25,7.58l.23.18Z"/>
    <path class="st1" d="M44.72,27.5c-2.33-.94-4.63-2.25-7.03-2.45-2.04.01-6.56.74-4.18,3.36,2.22,2.23,8.52.17,11.01-.73l.2-.17Z"/>
    <path class="st1" d="M43.21,30.84c-1.68.04-13.35,2.02-9.7,4.93,2.62,1.89,7.76-3.98,10.05-4.71l-.35-.22Z"/>
    <path class="st1" d="M46.7,32.6c-2.49,1.81-5.06,7.36-5.44,10.38-.42,3.61,1.58,3.59,3.41.93,1.59-2.55,4.53-8.56,2.03-11.32"/>
    <path class="st1" d="M53,32.39c-.48,3.49,1.48,7.66,2.73,9.09,2.25,2.56,5.78,2.21,5.17-1.55-.33-2.63-5.21-7.72-7.76-8.31l-.13.77Z"/>
    <path class="st1" d="M53.24,26.31c.14-1.66.72-5.39,2.23-4.96,2.62.75-1.17,3.38-2.03,4.79l-.2.17Z"/>
    <path class="st1" d="M54.47,27.44c3.13.27,12.07-.09,13.03,3.9.86,3.04-3.22,3.64-4.91,2.14-.99-.88-2.65-2.79-4.23-3.85-1.23-.85-2.33-1.46-3.9-2.19"/>
  </g>
</svg>