<?xml version="1.0" encoding="UTF-8"?>
<svg id="Layer_1" xmlns="http://www.w3.org/2000/svg" version="1.1" viewBox="0 0 396 496">
  <!-- Generator: Adobe Illustrator 30.2.1, SVG Export Plug-In . SVG Version: 2.1.1 Build 1)  -->
  <defs>
    <style>
      .st0 {
        fill: #3a2f2a;
        fill-rule: evenodd;
      }
    </style>
  </defs>
  <path class="st0" d="M317.43,228.6c1.11-.2,2.26-.4,3.37-.63,5.35-1.19,10.18,0,14.61,3.01,3.29,2.22,6.38,4.76,9.7,6.94,5.82,3.81,12.16,5.75,19.13,4.52,4.63-.83,8.75-3.14,12.83-4.88-16.99,3.89-24.24-2.22-28.99-6.07-2.06-1.67-4.2-3.25-6.34-4.84-6.65-4.92-13.94-7.06-22.22-5.63-3.64.63-7.37.95-11.05,1.27-1.94.16-3.6-.6-5.03-1.98-1.07-1.03-2.22-2.06-3.44-2.9-8.24-5.36-17.23-7.18-26.89-5.28-4.83.95-9.62,2.38-14.45,3.45-2.57.6-5.23,1.35-7.8,1.27-5.43-.16-9.66-3.13-13.15-7.1-2.89-3.29-3.84-7.34-3.6-11.63.2-3.45.59-6.9.91-10.32.83-8.73.28-17.38-1.7-25.87-2.57-10.91-6.81-21.23-12.32-30.99-1.86-3.29-3.45-6.79-4.67-10.36-1.07-3.17-1.43-6.55-2.18-9.84-.24-1.03-.55-2.06-1.07-2.94-1.35-2.14-3.37-2.62-5.46-1.23-.87.56-1.58,1.39-2.18,2.26-3.41,4.92-5.74,10.36-7.56,16.03-1.54,4.76-2.18,9.64-1.98,14.68.12,3.45,1.58,6.39,5.27,6.86,1.58.2,2.65,1.23,3.29,2.78,2.34,5.55,4.36,11.23,5.43,17.18,1.66,9.48,1.94,19.05,1.5,28.61-.16,3.53-.47,7.06-.91,10.59-.36,2.94-1.35,5.68-3.29,8.02-1.39,1.67-3.13,2.66-5.31,2.46-2.73-.24-5.5-.36-8.16-.95-5.94-1.31-11.88-2.82-17.74-4.4-7.44-1.98-14.85-3.97-22.65-4.05-8.91-.12-17.03,2.1-23.84,8.01-3.13,2.74-6.14,5.67-8.67,8.93-4.04,5.16-7.6,10.67-11.48,15.95-2.73,3.73-5.86,7.1-9.54,9.88-5.27,4.01-11.09,6.19-17.78,5.44-2.69-.28-5.11-1.11-7.33-2.74-2.73-2.02-4.55-4.68-6.14-7.54-1.54-2.78-2.93-5.68-4.55-8.37-2.46-4.05-5.98-6.71-10.65-7.66-3.41-.68-6.18.59-8.4,3.85.67-.28,1.15-.44,1.62-.64,4.2-1.86,8.63-.83,11.21,3.02,1.27,1.86,2.14,4.05,2.97,6.15,1.35,3.25,2.49,6.59,3.72,9.92.2.52.36.99.75,2.06-1.94-1.07-3.37-1.79-4.67-2.66-2.42-1.63-4.79-3.37-7.21-5-3.96-2.66-8.24-4.44-13.15-4.05-7.13.56-12.83,3.69-17.03,9.52-1.43,2.02-4.2,7.1-4.44,8.13,1.11-1.23,1.82-2.02,2.57-2.82,3.84-4.17,8.36-7.3,13.9-8.85,5.31-1.51,10.14-.87,14.53,2.54,2.38,1.86,4.71,3.73,7.09,5.6,6.77,5.32,14.3,8.85,22.97,9.36,3.6.24,7.29.32,10.81-.2,5.27-.75,9.86-3.29,14.14-6.35,1.27-.91,2.53-1.86,4.2-3.09,2.89,12.86-5.39,22.22-10.65,25.79-2.69,1.82-5.58,3.37-8.47,4.96-4.44,2.46-8.16,5.6-10.81,9.96-1.74,2.82-2.97,5.83-3.68,9.05-.51,2.34-1.98,3.45-4.24,3.69-1.94.16-3.88.36-5.82.4-3.8.12-7.6.08-11.29,1.23-6.61,2.06-11.56,9.52-10.61,16.03.99-1.35,1.9-2.78,2.93-4.09,2.46-2.98,5.23-5.68,9.07-6.63,2.46-.6,5.07-.67,7.6-.79,3.88-.16,7.76.12,11.64-.2,3.56-.28,5.98-2.46,7.29-5.79.55-1.39,1.07-2.74,1.66-4.21.44,5.16,4.44,8.57,6.02,9.64,6.97,4.8-.2,10.91-.75,11.9,1.66,0,11.88-4.52,4.24-14.32-2.46-2.42-3.76-5.56-4.08-9.05-.04-6.51,6.57-11.07,7.37-11.47,6.42-3.33,11.52-8.17,15.8-13.89,2.57-3.45,4.28-7.3,5.31-11.51,1.23-5.04,1.03-10.2,1.39-15.32.24-3.65.4-7.22,1.94-10.63,2.89-6.35,7.45-11.15,13.27-14.8,6.61-4.13,13.7-5.51,21.34-3.93,5.31,1.11,10.3,3.05,15.25,5.24,6.22,2.78,12.55,5.28,19.32,6.39,2.77.44,5.54.71,8.59,1.07-.4.6-5.43,5.56-7.92,6.94-4.16,2.26-8.63,4.01-12.95,6.03-6.65,3.1-13.35,6.11-19.84,9.44-5.35,2.74-10.22,6.31-14.49,10.63-4.55,4.6-6.69,10.56-9.03,16.39-2.57,6.51-4.91,13.09-7.6,19.52-2.18,5.16-4.75,10.16-8.55,14.32-5.86,6.47-12.83,11.31-21.46,13.53-3.6.91-6.42,2.86-7.64,6.63-.48,1.51-1.23,2.94-1.94,4.37-1.66,3.25-3.76,6.27-6.85,8.29-1.82,1.23-3.88,2.1-5.94,2.9-3.37,1.39-5.74,3.77-7.37,6.94-.71,1.43-1.03,2.94-.59,4.64.28-.24.44-.32.51-.44,1.58-4.21,4.63-6.35,9.03-7.18,5.23-.95,9.54-3.57,12.39-8.33.44-.71.99-1.35,1.39-1.86.63,3.69,5.35,10.12,1.66,18.21,1.74-1.07,2.61-2.42,3.09-4.13.95-3.33.55-6.67.24-10.04-.28-2.58-.48-5.12.36-7.62.71-2.06,1.78-3.81,4.16-4.44,2.22-.6,4.36-1.47,6.49-2.26,5.54-1.98,10.42-5.2,15.21-8.53.79-.56,1.46-1.31,3.05-1.55-1.19,1.43-1.98,2.5-2.89,3.41-1.78,1.82-3.56,3.69-5.46,5.4-4.04,3.69-4.95,8.41-3.76,13.37.91,3.93,2.49,7.74,4.12,11.43,1.86,4.29,3.21,9.68,1.19,13.77-1.23,2.42-9.03,6.67-10.49,10.99-.67,1.98-.08,3.13-.08,5.51.91-4.13,1.46-6.15,6.65-8.29,2.97-1.23,13.86-5.95,12.99-15.24-.36-3.69-2.18-7.22-2.81-10.87-.51-3.06-1.27-6.07-1.5-9.17-.32-3.81,1.58-6.75,4.43-9.17,4.24-3.53,8.28-7.26,10.3-12.62.87-2.26,1.51-4.6,2.26-6.94.16.2,3.56,7.86,6.26,11.03,1.94,2.26,3.68,4.8,4.91,7.5,2.18,4.72,2.69,9.88,1.07,14.84-1.23,3.77-.12,6.47.32,7.38-.36-2.98,1.03-6.15,2.14-8.33,1.86-3.61,2.3-7.54,1.7-11.63-.75-4.92-2.73-9.32-5.35-13.45-3.76-5.91-5.7-12.14-5.07-19.36.75-9.09,3.33-17.34,8.91-24.56,3.37-4.36,7.13-8.37,12.12-10.95,3.05-1.59,6.22-2.98,9.35-4.4,6.73-3.1,20.35-9.8,20.71-9.76-3.29,8.57-2.34,16.79,1.03,24.96.99,2.38,1.82,4.8,2.73,7.18,1.7,4.36,2.46,8.89,2.38,13.53-.08,6.23-3.56,10.99-7.49,15.43-2.69,3.05-5.62,5.87-8.43,8.81-6.18,6.51-4.24,20.99,3.64,25.36,3.68,2.02,6.14,7.06,3.25,12.58,3.6-1.63,4.95-8.57,3.52-11.83-1.07-2.46-2.57-4.68-4.67-6.35-1.27-1.03-1.86-2.26-2.02-3.85-.36-3.81,1.23-6.94,3.6-9.64,1.82-2.06,3.88-3.89,5.9-5.71,1.74-1.55,3.64-2.98,5.62-4.6.44,1.23.71,2.02.99,2.86,1.58,4.72,4.67,8.09,9.15,10.12,2.26,1.03,4.59,1.79,6.85,2.82,3.21,1.43,6.49,2.82,9.58,4.48,4.75,2.54,7.52,6.67,8.32,11.98.51,3.57.67,7.22.95,10.83.36,4.4,2.93,9.33,5.51,11.03,1.78,1.19,4.39,2.94,9.35,2.78,2.53-.08,3.88,1.11,5.62,3.14,0-1.79-1.46-4.25-3.84-5.16-1.51-.4-4.75-1.39-5.54-2.62-1.35-2.02-1.46-4.32-1.46-6.63,0-3.25.12-6.55.08-9.84-.04-1.83-.4-3.65-.59-5.48.47-.08.71-.2.95-.16,4.12.16,8-.4,11.76-2.38,3.76-1.98,7.72-1.31,11.56.28,2.02.83,3.52,2.3,4.91,3.93,2.02,2.34,5.54,3.17,8.04,2.14-3.76-.83-4.36-3.69-5.38-4.92-1.51-1.75-2.97-3.57-4.79-4.92-5.7-4.13-11.8-6.71-19.05-3.73-3.96,1.63-7.84.6-11.4-1.51-1.82-1.07-3.45-2.42-4.83-4.09-3.6-4.4-8.63-6.63-13.74-8.69-2.14-.83-4.24-1.83-6.18-2.98-2.54-1.47-4.28-3.73-4.75-6.67-.44-2.62-.63-5.28-.75-7.9-.12-2.9-.08-5.83-.04-8.73,0-4.96-1.15-9.64-2.77-14.29-1.47-4.29-3.01-8.57-3.92-12.94-1.86-8.85-.87-17.26,5.07-24.56,2.46-3.02,4.91-6.03,7.33-9.09.91-1.15,2.85-3.45,2.85-3.37.12.52.28,1.03.36,1.55.79,4.44,2.65,8.45,5.54,11.9,5.19,6.11,11.96,9.13,19.84,10.12,4.71.6,9.43,1.51,14.06,2.54,4.36.95,6.97,3.97,8.36,8.1.51,1.51.79,3.1,1.07,4.64.71,4.05-.4,7.9-1.51,11.74-2.53,8.97-1.7,17.46,3.48,25.48,3.84,5.95,9.15,8.53,16.08,6.9-.24-.2-.44-.4-.63-.48-8.71-3.61-15.48-15.2-11.96-26.39.63-2.02,1.42-4.01,2.18-5.99,2.38-6.43,2.73-12.78-.75-18.97-.24-.44-.4-.95-.55-1.39.28-.16.4-.32.55-.32.24-.04.52-.08.79,0,8.36,1.47,15.17,5.24,19.05,13.21,1.39,2.86,2.57,5.83,3.68,8.81,1.54,4.21,4.08,7.46,8.28,9.17,4.28,1.75,8.67,2.54,13.03.08.43-.24.99-.36,1.5-.52,4-1.27,7.49.4,8.83,4.44,1.07,3.21.91,6.51-.2,9.64-2.22,6.39-3.37,13.02-4.32,19.68-.2,1.39-.04,2.82.04,4.25.28,3.97,1.82,7.54,3.49,11.07,1.03,2.22,2.42,4.13,4.08,5.83,2.65,2.74,5.74,4.29,9.74,3.85,4.95-.52,9.27.71,12.59,4.68.59.71,1.35,1.51,2.38.87-.95-1.59-1.9-3.14-2.85-4.68-2.34-3.77-5.42-6.15-10.18-5.95-2.49.12-4.55-1.03-6.22-3.02-5.62-6.71-6.77-14.48-5.11-22.78,1.19-5.87,2.85-11.67,4.2-17.54.99-4.4.83-8.77-.99-13.01-2.81-6.59-8.24-9.21-15.05-7.06-1.58.52-3.13,1.19-4.75,1.63-2.57.67-4.24-.32-5.35-2.98,3.25.36,6.45-3.77,7.44-6.23,1.82-4.72,6.3-6.47,11.09-4.29,2.38,1.07,4.39,2.62,6.06,4.64,1.78,2.18,4,3.49,6.89,3.37,1.66-.08,3.21-.4,4.51-2.14-.87-.08-5.54,1.27-7.96-2.94-.67-1.03-1.35-2.1-1.9-3.17-1.31-2.58-2.97-4.8-5.54-6.23-2.93-1.63-6.02-2.06-9.31-1.47-3.17.55-4.71,1.94-7.4,5.79-.83,1.27-1.74,2.46-2.61,3.65-1.82,2.38-4,2.18-5.31-.56-.28-.56-2.38-6.03-3.72-7.86-3.88-5.2-8.79-9.17-14.85-11.63-7.92-3.21-16.12-5.2-24.55-6.47-5.27-.79-10.41-1.9-15.44-3.65-6.85-2.38-10.53-7.54-12.87-14.56,5.98,1.59,11.17-.24,16.35-2.02,3.6-1.23,7.09-2.78,10.61-4.21,5.23-2.1,10.57-3.49,16.27-3.13,6.26.4,11.29,2.86,13.94,8.89.83,1.9,1.42,4.01,1.74,6.07,1.11,7.9,8.04,13.73,15.96,13.09,7.52-.6,13.9,1.75,18.97,7.46.51.6,1.11,1.15,1.74,1.63,1.58,1.23,3.4,1.59,5.66,1.03-2.89-1.47-4.87-3.69-6.73-6.07-4.48-5.71-10.14-9.25-17.58-9.4-1.07,0-2.14-.16-3.17-.36-3.41-.71-6.1-2.14-6.89-5.99-.71-3.33-1.7-6.63-2.65-10.28,3.72.75,7.33-.28,10.93-.95l.16-.28Z"/>
</svg>