<?xml version="1.0" encoding="UTF-8"?>
<svg id="Layer_1" xmlns="http://www.w3.org/2000/svg" version="1.1" viewBox="0 0 90 112.5">
  <!-- Generator: Adobe Illustrator 30.2.1, SVG Export Plug-In . SVG Version: 2.1.1 Build 1)  -->
  <defs>
    <style>
      .st0 {
        fill: #b7a89a;
        stroke: #3a2f2a;
        stroke-miterlimit: 10;
      }
    </style>
  </defs>
  <path class="st0" d="M59.4,27.3c-1.2-1.5-4.8-5.8-11-6-.3,0-6.3-.1-10.5,4.5-2.2,2.5-3,5.2-3.2,6.1-.5,2-.4,3.3-.4,4.5.1,1.1.1,2-.3,3.5-.6,2.1-1.7,3.7-2,4.1-.6.8-1,1.2-1.5,1.6s-1,.9-1.7,1.8c-2.2,3-2,6.5-2,7.8,0,1.9.6,8.3,6,11.7,2.3,1.4,4.7,1.8,6.6,1.8,1.2,0,2.2-.1,3-.2,4-.5,6.7-2,7.7-2.6,8-4.6,13.3-15.2,13-25.7.1-3.2,0-8.4-3.7-12.9ZM38,48.2c-.8-.8-.9-2-.1-2.8.8-.9,1.4-1.8,1.8-2.9.7-1.8.7-3.5.6-4.6-.1-1.1.7-2.1,1.8-2.2s2.1.7,2.2,1.8c.3,2.1,0,4.3-.8,6.4-.6,1.5-1.5,2.9-2.6,4.1-.4.4-.9.7-1.5.7-.5,0-1-.2-1.4-.5Z"/>
</svg>