<?xml version="1.0" encoding="UTF-8"?>
<svg id="Layer_1" xmlns="http://www.w3.org/2000/svg" version="1.1" viewBox="0 0 1200 1200">
  <!-- Generator: Adobe Illustrator 30.2.1, SVG Export Plug-In . SVG Version: 2.1.1 Build 1)  -->
  <defs>
    <style>
      .st0 {
        fill: #f3d6d0;
        fill-rule: evenodd;
      }
    </style>
  </defs>
  <path class="st0" d="M561.5,843.07c-1.05,6.66,22.16-121.68,29.36-166.4,12.36-41.39,20.35-91.16,37.34-138.32,1.11-3.1,2.23-6.2,2.9-9.39,4.33-20.44,12.47-39.09,24.12-56.54,5.34-8,8.23-17.75,11.6-26.91.89-2.34-.64-5.55-1.18-9.07-2.04,1.48-3.05,1.84-3.47,2.55-25.48,42.71-51.07,85.33-76.08,128.32-3.35,5.79-5.15,13.4-4.99,20.11.35,15.37-4.7,28.84-11.51,42.2-.88-4.73-1.01-9.36-.85-13.98,1-30.02,2.11-60.05,3.01-90.09.55-17.84.31-35.72,1.29-53.52,1.09-20.14,3.16-40.22,4.77-60.34,1.63-20.11,3-40.25,4.87-60.34,4.03-43.32,19.1-82.93,40.98-120.21,1.52-2.61,3.77-4.78,5.63-7.12,4.89,3.66,8.65,7.63,13.25,9.64,4.45,1.95,11.06,4.18,14.46,2.27,12.79-7.16,26.95-7.69,40.6-10.75,15.61-3.52,26.09-12.55,29.46-28.55,1.15-5.41,2.81-11.39,1.52-16.41-1.05-4.11-6.12-7.19-9.39-10.7,1.71-3.84,3.73-7.59,5.11-11.53,7.05-20.5-2.61-36.05-23.81-40.14-9.45-1.8-18.52-5.57-26.75-8.15,0-6.56.52-11.31-.12-15.9-1.29-9.88-7.4-16.06-16.74-18.77-10.35-3.01-20.46-1.49-26.53,7.67-7.43,11.27-13.18,23.68-19.43,35.71-2.27,4.32-3.89,8.99-6.66,15.49-4.68-8.59-8.1-15.21-11.85-21.65-3.71-6.34-4.11-15-13.61-20.17-1.09,8.35-1.51,14.79-2.81,21.05-2.95,14.27-.17,27.16,8.9,38.43,7.18,8.89,10.05,18.74,9.65,30.05-.46,12.23,5.34,21.56,14.9,28.79,2.58,1.95,5.17,3.89,8.81,6.64-4.99,9.76-9.57,19.45-14.76,28.78-12.25,21.91-21.5,45.05-25.78,69.64-4.75,27.23-7.95,54.74-10.96,82.23-2.55,23.33-4.38,46.74-5.63,70.18-1.43,26.71-1.87,53.48-2.65,80.23-1.07,37.56-1.84,75.11-3.13,112.66-.41,12.16-2.12,24.23-3.12,36.34-.3,3.74-.55,40.33-4.46,54.03-5.62-2.79-13.53-20.64-10.18-25.62,6.38-9.54,5.52-19.75,1.73-29.71-3.66-9.6-15.27-78.89-23.9-89.63-3.54-4.37-12.14-59.8-18.74-72.24-7.41-14.04-26-35-25.77-31.26.74,11.65,1.13,23.53,3.64,34.87,8.61,38.93,15.7,78.1,22.27,117.42,5.95,35.54,8.99,71.73,20.36,106.3,1.92,5.8,10.99,30.96,20.8,44.65,9.8,13.71,23.52,37.19,23.52,37.19v-.02Z"/>
  <path class="st0" d="M549.74,807.84s-4.61,259.31,12.28,313.29c2.09,6.68,7.44,5.3,10.23,4.85,2.47-.41,10-1.18,5.87-7.36-11.75-17.62-15.31-98.26-17.62-160.04-3.43-92.02,4.88-152.72,4.88-152.72l-15.64,1.98Z"/>
</svg>