<?xml version="1.0" encoding="UTF-8"?>
<svg id="Layer_1" xmlns="http://www.w3.org/2000/svg" xmlns:svg="http://www.w3.org/2000/svg" xmlns:sodipodi="http://sodipodi.sourceforge.net/DTD/sodipodi-0.dtd" xmlns:rdf="http://www.w3.org/1999/02/22-rdf-syntax-ns#" xmlns:inkscape="http://www.inkscape.org/namespaces/inkscape" xmlns:dc="http://purl.org/dc/elements/1.1/" xmlns:cc="http://creativecommons.org/ns#" version="1.1" viewBox="0 0 100 125">
  <!-- Generator: Adobe Illustrator 30.2.1, SVG Export Plug-In . SVG Version: 2.1.1 Build 1)  -->
  <defs>
    <style>
      .st0 {
        fill: #fdf5e6;
        fill-rule: evenodd;
      }
    </style>
  </defs>
  <path class="st0" d="M50,12.49l2.1,16.81h0s2.01,16.16,2.01,16.16c.03.22.2.4.43.43l16.16,2.02h0l16.81,2.09-16.81,2.09h0l-16.16,2.02c-.22.03-.4.21-.43.43l-2.01,16.16h0s-2.1,16.81-2.1,16.81l-2.09-16.81-2.01-16.16c-.03-.22-.2-.4-.43-.43l-16.17-2.02h0l-16.81-2.09,16.81-2.09h0l16.17-2.02c.22-.03.4-.21.43-.43l2.01-16.16,2.09-16.81Z"/>
</svg>