<?xml version="1.0" encoding="UTF-8"?>
<svg id="Layer_1" xmlns="http://www.w3.org/2000/svg" version="1.1" viewBox="0 0 110 135">
  <!-- Generator: Adobe Illustrator 30.2.1, SVG Export Plug-In . SVG Version: 2.1.1 Build 1)  -->
  <defs>
    <style>
      .st0 {
        fill: #d99a8c;
      }
    </style>
  </defs>
  <path class="st0" d="M82.63,50.09c-.17-.71-.78-1.13-1.1-1.35-2.76-1.98-5.5-3.87-8.47-5.35,3.14-1.26,5.67-2.65,7.86-4.29.45-.34.95-.74,1.28-1.36.39-.82.28-1.73-.28-2.28-.52-.52-1.25-.59-1.63-.62-3.39-.32-6.71-.59-10.01-.38,2.1-2.7,3.6-5.17,4.66-7.66.23-.52.45-1.13.43-1.82-.06-.89-.61-1.62-1.37-1.83-.68-.19-1.31.1-1.72.29-2.96,1.34-6.05,2.81-8.87,4.68.47-3.38.54-6.27.21-8.99-.06-.5-.15-1.17-.54-1.77-.42-.62-1.23-1.14-2.11-.9-.69.19-1.1.76-1.35,1.1-1.9,2.66-3.85,5.48-5.33,8.49-1.29-3.17-2.68-5.71-4.31-7.88-.33-.46-.74-.97-1.34-1.26-.79-.41-1.73-.3-2.29.26-.52.5-.58,1.22-.61,1.63-.32,3.23-.6,6.63-.39,10.01-2.71-2.11-5.17-3.61-7.66-4.67-.55-.23-1.12-.44-1.81-.42-.88.06-1.64.62-1.84,1.38-.18.67.09,1.27.28,1.72,1.49,3.24,2.9,6.18,4.71,8.89-3.38-.47-6.28-.54-9.01-.21-.53.07-1.18.16-1.74.54-.74.48-1.12,1.32-.92,2.13.19.65.73,1.05,1.1,1.33,2.76,1.96,5.48,3.85,8.46,5.31-3.16,1.28-5.69,2.67-7.86,4.29-.44.34-.95.74-1.27,1.36-.39.78-.28,1.72.27,2.28.49.49,1.14.56,1.63.62,2.56.24,5.09.46,7.6.46.81,0,1.61-.02,2.41-.08-2.09,2.68-3.58,5.14-4.66,7.66-.24.55-.46,1.14-.42,1.8.05.9.6,1.64,1.38,1.85.15.04.3.06.45.06.46,0,.89-.17,1.26-.35,2.95-1.34,6.04-2.8,8.86-4.67-.47,3.4-.54,6.28-.21,8.97.07.59.18,1.21.54,1.77.39.61,1.04.97,1.68.97.15,0,.29-.02.43-.06.7-.19,1.12-.79,1.34-1.1,1.61-2.26,3.26-4.63,4.63-7.14.7,5.92-.28,12.01-1.24,17.93-.31,1.96-.64,3.99-.9,5.98-.67,5.1-.95,10.31-.82,15.46.01.41.35.73.75.73h.02c.41-.01.74-.35.73-.77-.12-5.07.15-10.2.81-15.23.04-.34.09-.67.14-1.01.03.02.06.05.09.08.59.53,1.54.76,2.68.76,3.03,0,7.37-1.58,9.64-3.25,4.35-3.21,8.69-9.63,9.12-13.48.04-.34-.16-.67-.49-.78-.32-.12-.69,0-.88.28-1.98,2.98-6.6,5.4-10.13,6.25-3.78.91-6.34,2.91-9.27,5.25v-.03c.92-5.74,1.87-11.65,1.34-17.48,1.03,2.23,2.16,4.16,3.43,5.84.36.49.78.98,1.34,1.26.32.17.67.25,1,.25.49,0,.96-.18,1.3-.52.45-.46.56-1.08.6-1.62.32-3.23.6-6.64.39-10.02,2.71,2.11,5.17,3.61,7.68,4.68.46.19,1.01.41,1.62.41h.16c.88-.04,1.65-.6,1.86-1.38.17-.65-.09-1.25-.29-1.71-1.4-3.09-2.82-6.1-4.65-8.85,1.95.27,3.74.41,5.42.41,1.22,0,2.39-.07,3.51-.21.6-.07,1.23-.17,1.78-.53.75-.49,1.12-1.36.91-2.11h-.02ZM80.15,36.34c.3.02.59.06.72.19.08.07.08.33-.01.53-.17.32-.52.6-.84.83-2.43,1.83-5.32,3.33-9.09,4.72-.02.01-.03.01-.05.02-.93.34-1.87.67-2.82.97-1.5.49-3.28,1.03-5.06,1.29-.02,0-.05.01-.08.01-1.46.21-2.75.21-3.95.01.01-.03.01-.07.02-.1.17-.88.06-1.77-.33-2.57.92-1.08,1.67-2.35,2.29-3.85,1.92-1.04,4.14-1.76,6.6-2.15.37-.06.74-.1,1.14-.14,3.73-.44,7.54-.14,11.46.24h0ZM60.84,18.44c.13-.18.35-.49.53-.53.1-.03.33.08.45.27.19.29.25.67.31,1.14.37,3,.22,6.25-.46,10.23,0,.02-.01.04-.01.05-.17.98-.36,1.96-.57,2.93-.42,2.05-.87,3.65-1.42,5.04-.53,1.35-1.17,2.48-1.94,3.44-.53-.5-1.2-.84-1.93-.98-.26-.05-.53-.08-.79-.08-.56,0-1.11.12-1.6.33-.32-1.24-.46-2.55-.43-3.87.01-.04.01-.07.01-.1v-.03c.07-2.27.56-4.62,1.51-7.05.13-.32.26-.64.42-.98,1.49-3.51,3.65-6.64,5.92-9.81h0ZM35.69,26.21c-.11-.25-.24-.57-.2-.72.03-.11.25-.26.47-.27.34-.02.75.13,1.14.3,2.74,1.17,5.45,2.91,8.57,5.46l.1.1c.77.63,1.52,1.28,2.26,1.94,1.1.99,2.37,2.17,3.46,3.53-.02,1.64.19,3.2.6,4.65-.53.54-.91,1.23-1.07,2.03-.02.12-.04.24-.05.36-1.24-.36-2.48-.92-3.7-1.66-.02-.01-.04-.02-.06-.03-1.92-1.17-3.7-2.76-5.29-4.74-.24-.3-.47-.6-.7-.92-2.22-2.99-3.82-6.32-5.53-10.03h0ZM29.84,51.87c-.28-.04-.6-.07-.71-.19-.09-.08-.1-.33,0-.54.16-.32.51-.6.83-.83,2.39-1.8,5.26-3.29,9.02-4.69.12-.01.23-.05.32-.11.87-.33,1.75-.64,2.62-.92,1.32-.43,3.05-.96,4.8-1.24,1.43.85,2.91,1.47,4.39,1.82h0c.07.25.17.48.29.7h0c-.95,1.08-1.73,2.37-2.37,3.95-1.93,1.03-4.15,1.74-6.58,2.12-.34.06-.7.11-1.05.15h-.1c-3.73.45-7.55.15-11.46-.22h0ZM49.12,69.77c-.11.17-.33.48-.5.53-.12.02-.34-.09-.46-.28-.19-.3-.26-.72-.31-1.14-.37-2.96-.22-6.22.46-10.23.01-.02.01-.04.01-.06.14-.84.32-1.77.56-2.92.45-2.11.89-3.66,1.44-5.03.55-1.43,1.21-2.6,2.01-3.56.52.45,1.16.78,1.88.93.18.03.35.05.52.06.46,1.39,1.2,2.73,2.25,4.08-.09,2.17-.6,4.49-1.46,6.74-.14.35-.28.69-.45,1.06-.01.02-.02.04-.03.07-.1.22-.2.44-.31.66-.02.05-.04.09-.06.14-1.49,3.18-3.54,6.16-5.55,8.95h0ZM55.67,83.26l.33-.26c2.85-2.28,5.32-4.24,8.85-5.1,2.73-.65,6.17-2.2,8.71-4.34-1.52,3.28-4.58,7.21-7.57,9.41-3.01,2.22-9.15,3.74-10.42,2.59-.24-.21-.79-.78-.71-1.29.06-.37.44-.71.81-1.01h0ZM74.29,61.99c.11.25.25.57.21.71-.04.13-.26.26-.49.27-.33.03-.76-.15-1.12-.29-2.78-1.19-5.54-2.95-8.67-5.55-.03-.02-.05-.04-.08-.06-.65-.54-1.33-1.12-2.18-1.9-1.52-1.36-2.67-2.52-3.59-3.68-.01-.02-.02-.04-.04-.06-.02-.03-.04-.05-.07-.08-.92-1.16-1.59-2.3-2.01-3.47.36-.11.7-.27,1.01-.48.44-.29.81-.66,1.09-1.08.78.16,1.59.24,2.46.24.67,0,1.38-.05,2.12-.15h.01c1.84,1.15,3.57,2.7,5.12,4.62.23.29.45.57.67.87.02.02.03.05.05.07,2.26,3.02,3.9,6.47,5.51,10.02h-.01Z"/>
</svg>