<?xml version="1.0" encoding="UTF-8"?>
<svg id="Layer_1" xmlns="http://www.w3.org/2000/svg" version="1.1" viewBox="0 0 100 125">
  <!-- Generator: Adobe Illustrator 30.2.1, SVG Export Plug-In . SVG Version: 2.1.1 Build 1)  -->
  <defs>
    <style>
      .st0 {
        fill: #e8f3ed;
        stroke: #2f4f3a;
        stroke-miterlimit: 10;
      }
    </style>
  </defs>
  <path class="st0" d="M6.08,44.61c.25,1.18,1.07,2.15,2.2,2.58l4.37,1.68s0,0,0,0l17.16,17.16-1.72,19.19c-.18,2.01.5,4.02,1.86,5.5,1.36,1.49,3.3,2.34,5.32,2.34h30.33c2.02,0,3.96-.85,5.32-2.34,1.36-1.49,2.04-3.49,1.86-5.5l-.51-5.75,16.8-12.19c3.09-2.24,4.93-5.86,4.93-9.68,0-3.19-1.24-6.19-3.5-8.45-2.26-2.26-5.26-3.5-8.46-3.5h-12.8s-.25-2.76-.25-2.76h.39c2.21,0,4-1.79,4-4v-2.96c0-2.21-1.79-4-4-4H31.5c-2.21,0-4,1.79-4,4v2.96c0,2.21,1.79,4,4,4h.39s-.64,7.14-.64,7.14l-9.89-9.89-1.68-4.36c-.43-1.13-1.4-1.95-2.58-2.2-1.18-.25-2.4.11-3.25.96l-6.81,6.81c-.85.85-1.21,2.07-.96,3.25ZM69.99,53.92h12.05c2.03,0,3.69,1.65,3.69,3.68,0,1.17-.57,2.29-1.52,2.98l-12.79,9.29-1.43-15.95ZM69.43,47.65h12.61c2.66,0,5.16,1.04,7.04,2.91s2.91,4.38,2.91,7.03c0,3.18-1.53,6.2-4.1,8.06l-15.83,11.49-.44-4.96,13.76-9.99c1.47-1.07,2.35-2.79,2.35-4.6,0-3.13-2.55-5.68-5.69-5.68h-12.23s-.38-4.27-.38-4.27ZM61.36,86.69c0-.55.45-1,1-1h3.07s-.67-7.53-.67-7.53c-.05-.55.36-1.04.91-1.08.56-.05,1.04.36,1.09.91l.69,7.71c.05.52-.12,1.01-.47,1.4-.35.38-.83.59-1.35.59h-3.25c-.55,0-1-.45-1-1ZM65.27,72.71s-.06,0-.09,0c-.51,0-.95-.39-1-.91l-.15-1.73c-.05-.55.36-1.04.91-1.08.55-.05,1.04.36,1.09.91l.15,1.73c.05.55-.36,1.04-.91,1.08ZM31.5,40.9c-1.1,0-2-.9-2-2v-2.96c0-1.1.9-2,2-2h37.9c1.1,0,2,.9,2,2v2.96c0,1.1-.9,2-2,2H31.5ZM14.49,47.87l5.89-5.89,10.64,10.64-.97,10.81-15.56-15.56Z"/>
</svg>