<?xml version="1.0" encoding="UTF-8"?>
<svg xmlns="http://www.w3.org/2000/svg" version="1.1" viewBox="0 0 800 800">
  <!-- Generator: Adobe Illustrator 30.2.1, SVG Export Plug-In . SVG Version: 2.1.1 Build 1)  -->
  <defs>
    <style>
      .st0 {
        fill: #9d54a1;
        stroke: #fff;
      }

      .st0, .st1, .st2, .st3, .st4 {
        stroke-miterlimit: 10;
      }

      .st5 {
        fill: #d99a8c;
      }

      .st1 {
        stroke-width: 5px;
      }

      .st1, .st6, .st4 {
        fill: #7ac1a3;
      }

      .st1, .st3 {
        stroke: #000;
      }

      .st2, .st3, .st4 {
        stroke-width: 4px;
      }

      .st2, .st7 {
        fill: #fdf5e6;
      }

      .st2, .st4 {
        stroke: #2f4f3a;
      }

      .st8 {
        fill: #f3d6d0;
      }

      .st9 {
        fill: #e98547;
      }

      .st3 {
        fill: #fbd7da;
      }

      .st10 {
        opacity: .6;
      }

      .st11 {
        fill: #dec978;
      }

      .st12 {
        display: none;
      }
    </style>
  </defs>
  <g id="seed_svg_original" class="st12">
    <g id="Capa_1">
      <g class="st10">
        <g>
          <path class="st9" d="M393.06,248.79c2.45.03,4.74,1.03,6.46,2.8s2.65,4.12,2.61,6.61c-.04,2.49-1.05,4.81-2.83,6.54s-4.08,2.63-6.54,2.6c-2.44-.04-4.73-1.05-6.44-2.82s-2.65-4.12-2.61-6.61c.04-2.49,1.05-4.81,2.83-6.54,1.76-1.7,4.08-2.63,6.53-2.58Z"/>
          <path class="st11" d="M439.3,236.45c5.94.13,11.47,2.57,15.59,6.88,4.16,4.38,6.39,10.14,6.24,16.25-.14,6.04-2.59,11.66-6.91,15.86-4.34,4.2-10.04,6.45-16.03,6.31-2.21-.05-4.42-.44-6.55-1.14-2.75-.92-5.66-.94-8.36-.19,4.64-6.27,7.24-13.79,7.36-21.76.11-7.8-2.13-15.25-6.39-21.6,2.7.9,5.63,1.02,8.46.21,2.15-.61,4.35-.89,6.58-.82Z"/>
          <path class="st11" d="M413.62,289.64c-.89,2.65-1.02,5.53-.24,8.33.61,2.17.89,4.43.84,6.7-.14,6.04-2.6,11.68-6.93,15.87s-10.03,6.43-16.04,6.3c-5.94-.13-11.47-2.57-15.58-6.9-4.18-4.37-6.4-10.13-6.25-16.26.05-2.27.44-4.5,1.14-6.65.94-2.79.93-5.73.14-8.44,6.23,4.57,13.7,7.14,21.6,7.26,7.68.12,15.04-2.05,21.32-6.2Z"/>
          <path class="st11" d="M354.14,235.48c2.76.94,5.67.96,8.4.2-4.64,6.27-7.22,13.81-7.36,21.76-.11,7.8,2.14,15.27,6.38,21.61-2.69-.91-5.62-1.03-8.45-.23-2.12.61-4.33.89-6.57.84-5.96-.14-11.52-2.6-15.63-6.95-4.16-4.38-6.37-10.12-6.23-16.19.15-6.03,2.61-11.66,6.94-15.86s10.04-6.45,16.06-6.31c2.24.05,4.41.42,6.47,1.11Z"/>
          <path class="st11" d="M394.57,189.27c5.96.14,11.51,2.61,15.64,6.96,4.15,4.37,6.34,10.12,6.2,16.18-.05,2.27-.44,4.53-1.16,6.69-.92,2.78-.92,5.71-.12,8.43-6.24-4.58-13.71-7.16-21.62-7.27-7.68-.12-15.04,2.05-21.3,6.2.87-2.65.99-5.53.23-8.32-.61-2.17-.89-4.43-.84-6.73.15-6.03,2.6-11.65,6.93-15.84s10.03-6.43,16.03-6.31Z"/>
          <path class="st6" d="M502.05,421.04l-.13,7.92c-74.56,20.29-149.62,19.09-223.48-3.6l.13-7.92c73.94,20.83,148.91,22.03,223.48,3.6Z"/>
          <path d="M532,106.38c6.36,2.17,11.1,7.55,12.46,14.12,22.25,106.95,21.35,172.2-4,277.85l-.73,45.27c-.08,5.16-2.26,9.93-5.8,13.36-2.1,2.04-4.71,3.61-7.65,4.52-91.13,27.94-183.06,26.44-273.23-4.4-7.8-2.67-13-10.07-12.87-18.3l.74-45.28c-21.95-106.39-20.74-171.66,4.93-277.82,1.57-6.53,6.48-11.75,12.91-13.71,91.11-27.92,183.06-26.44,273.23,4.4ZM509.41,138.98c-75.7-23.82-152.68-25.06-229.11-3.69-21.3,91.79-22.24,149.39-3.92,241.8l.04.04c75.69,23.81,152.66,25.03,229.09,3.69.01-.01.03-.03.03-.05,21.3-91.76,22.23-149.35,3.88-241.79ZM501.92,428.95l.13-7.92c-74.57,18.44-149.54,17.23-223.48-3.6l-.13,7.92c73.86,22.69,148.91,23.88,223.48,3.6Z"/>
          <path d="M395.22,160.4c13.38.31,25.83,5.83,35.07,15.58,8.12,8.54,12.88,19.46,13.69,31.11,11.47,1.34,22.06,6.62,30.16,15.12,9.29,9.72,14.21,22.51,13.9,35.99-.33,13.33-5.78,25.78-15.34,35.04-8.53,8.26-19.44,13.14-31.11,13.97-1.35,11.55-6.57,22.18-15.01,30.36-9.7,9.39-22.44,14.38-35.89,14.09-13.32-.29-25.73-5.77-34.95-15.43-8.19-8.58-13-19.55-13.79-31.26-11.54-1.36-22.16-6.67-30.29-15.23-9.21-9.72-14.11-22.45-13.79-35.87.32-13.34,5.76-25.79,15.33-35.06,8.53-8.26,19.45-13.13,31.12-13.96,1.32-11.55,6.55-22.2,15-30.37,9.7-9.39,22.44-14.38,35.9-14.07ZM409.95,195.26c-4.07-4.28-9.52-6.71-15.38-6.84-5.9-.12-11.49,2.07-15.75,6.2-4.25,4.12-6.66,9.65-6.81,15.57-.05,2.25.22,4.47.82,6.61.75,2.74.63,5.58-.22,8.18,6.15-4.08,13.38-6.21,20.93-6.09,7.77.11,15.11,2.64,21.25,7.15-.78-2.67-.79-5.55.12-8.28.7-2.13,1.09-4.35,1.14-6.58.13-5.96-2.02-11.62-6.1-15.91ZM453.86,241.56c-4.05-4.24-9.49-6.63-15.33-6.77-2.19-.06-4.36.21-6.47.81-2.78.79-5.67.67-8.32-.21,4.19,6.24,6.39,13.57,6.28,21.23-.13,7.83-2.68,15.23-7.24,21.39,2.65-.74,5.51-.72,8.22.18,2.09.69,4.26,1.07,6.44,1.12,5.89.13,11.49-2.07,15.75-6.2s6.66-9.65,6.8-15.58c.15-6-2.04-11.67-6.13-15.97ZM399.44,249.67c-1.69-1.74-3.94-2.73-6.35-2.76-2.41-.05-4.69.87-6.42,2.54s-2.74,3.98-2.78,6.42c-.04,2.45.88,4.76,2.56,6.5s3.94,2.73,6.33,2.77c2.42.04,4.69-.87,6.43-2.55s2.74-3.98,2.78-6.42c.04-2.45-.88-4.76-2.56-6.5ZM363.1,234.04c-2.68.74-5.54.72-8.26-.2-2.02-.68-4.16-1.05-6.36-1.09-5.91-.13-11.51,2.07-15.78,6.2s-6.68,9.66-6.82,15.58c-.13,5.96,2.03,11.6,6.12,15.91,4.04,4.28,9.5,6.7,15.36,6.83,2.2.05,4.37-.23,6.46-.82,2.78-.79,5.67-.67,8.31.22-4.16-6.24-6.38-13.58-6.27-21.24.14-7.82,2.68-15.23,7.24-21.39ZM413.07,295.26c-.77-2.76-.64-5.59.23-8.19-6.17,4.08-13.41,6.21-20.96,6.09-7.77-.11-15.11-2.64-21.24-7.13.78,2.67.79,5.55-.13,8.3-.69,2.11-1.07,4.31-1.12,6.54-.15,6.03,2.04,11.69,6.15,15.99,4.04,4.25,9.48,6.65,15.31,6.78,5.91.13,11.5-2.06,15.77-6.19s6.68-9.66,6.81-15.6c.05-2.23-.22-4.45-.82-6.58Z"/>
          <path d="M477,500.64c5.01.08,9.87,2.2,13.36,5.8,3.47,3.58,5.43,8.52,5.35,13.52-.09,4.99-2.2,9.87-5.79,13.34s-8.54,5.43-13.52,5.35c-5.01-.08-9.89-2.19-13.36-5.77-3.48-3.6-5.43-8.54-5.35-13.55.08-4.98,2.19-9.86,5.79-13.34s8.53-5.42,13.52-5.35Z"/>
          <path d="M522.04,565.32c5.01.08,9.87,2.2,13.34,5.79s5.45,8.53,5.35,13.52c-.08,5.01-2.18,9.88-5.77,13.36-3.6,3.48-8.54,5.43-13.55,5.35-4.98-.08-9.86-2.19-13.34-5.79-3.47-3.58-5.42-8.53-5.35-13.52.08-5.01,2.2-9.87,5.8-13.36s8.52-5.43,13.52-5.35Z"/>
          <path d="M453.76,566.83c4.99.07,9.88,2.18,13.36,5.77,3.48,3.6,5.42,8.53,5.34,13.54s-2.19,9.86-5.79,13.34c-3.6,3.48-8.52,5.43-13.52,5.35s-9.88-2.18-13.36-5.77c-3.48-3.6-5.43-8.54-5.34-13.54.07-5.02,2.18-9.88,5.77-13.36,3.6-3.48,8.52-5.43,13.54-5.34Z"/>
          <path d="M365.76,521.04c5.01.08,9.86,2.19,13.34,5.79s5.42,8.5,5.35,13.52c-.08,5.01-2.19,9.89-5.77,13.36-3.6,3.48-8.54,5.43-13.54,5.34-5.01-.08-9.88-2.18-13.36-5.77s-5.42-8.53-5.34-13.54c.07-4.99,2.18-9.88,5.77-13.36,3.58-3.47,8.53-5.42,13.54-5.34Z"/>
          <path d="M277.76,475.25c4.99.09,9.86,2.19,13.34,5.79,3.48,3.6,5.42,8.53,5.35,13.52-.08,5.01-2.19,9.89-5.79,13.37-3.58,3.47-8.53,5.42-13.54,5.34-4.99-.09-9.86-2.19-13.34-5.79s-5.42-8.53-5.35-13.52c.08-5.01,2.19-9.89,5.77-13.36,3.6-3.48,8.54-5.43,13.55-5.35Z"/>
          <path d="M386.86,587.92c4.99.09,9.87,2.2,13.36,5.8s5.42,8.53,5.35,13.52c-.09,4.99-2.2,9.87-5.8,13.36-3.58,3.47-8.53,5.42-13.52,5.35-4.99-.09-9.87-2.2-13.34-5.79-3.48-3.6-5.43-8.54-5.37-13.54.09-4.99,2.2-9.87,5.79-13.34s8.54-5.43,13.54-5.37Z"/>
          <path d="M431.89,652.62c5.02.07,9.89,2.19,13.36,5.77,3.48,3.6,5.45,8.53,5.34,13.54-.07,4.99-2.16,9.86-5.77,13.36s-8.53,5.42-13.54,5.34c-4.99-.07-9.86-2.19-13.34-5.79s-5.43-8.52-5.35-13.52,2.2-9.87,5.79-13.34c3.61-3.49,8.53-5.45,13.52-5.35Z"/>
          <path d="M298.85,542.14c5.01.08,9.88,2.18,13.37,5.79s5.42,8.53,5.34,13.54c-.09,4.99-2.19,9.86-5.79,13.34s-8.53,5.42-13.52,5.35c-5.01-.08-9.87-2.2-13.34-5.79s-5.45-8.53-5.37-13.54c.09-4.99,2.18-9.85,5.79-13.34s8.53-5.42,13.52-5.35Z"/>
        </g>
        <path class="st6" d="M-51.95,456.75"/>
      </g>
      <path class="st6" d="M471.87,350.68"/>
      <path d="M271.29,384.59"/>
    </g>
  </g>
  <g id="drawing">
    <path class="st0" d="M81.96,158.35"/>
    <path class="st6" d="M81.96,232.74"/>
    <path class="st4" d="M195.68,542.04s-23.89-180.6-22.79-210.63c1.1-30.03,29.6-213.57,29.6-213.57,0,0,165.69-28.59,204.2-26.58,38.51,2.01,197.68,33.05,197.68,33.05,0,0,23.21,191.79,22.77,208.85-.44,17.06-29.58,215.26-29.58,215.26,0,0-189.34,26.92-199.46,26.64-10.12-.27-202.42-33.02-202.42-33.02Z"/>
    <path class="st1" d="M236.27,575.06"/>
    <path class="st2" d="M195.68,532.39c-7.57,14.84-16.54,38.24-7.96,58.96,17.02,41.13,91.42,43.33,220.67,45.7,155.13,2.85,178.74-17.62,188.1-34.29,11.52-20.52,7.13-45.41,1.07-63.99-52.16,11.05-119.32,20.44-197.59,19.52-81.62-.96-151.08-12.86-204.29-25.9Z"/>
    <path class="st3" d="M163.31,400"/>
    <g id="Layer_1-2">
      <path class="st5" d="M336.37,328.94c-3.25-1.45-5.18-2.24-7.05-3.15-8.35-4-15.5-10.11-20.75-17.74-6.74-9.77-8.02-20.33-4.55-31.44,3.31-10.72,11.63-17.87,25.62-14.63,8.85,2.05,17.12,6.57,25.63,10.03,1.56.64,3.04,1.5,4.24,2.09,2.58-1.49,2.16-3.4,1.78-4.96-2.97-13.14,1.87-24.44,8.47-35.2,1.91-2.98,4.4-5.56,7.31-7.57,14.4-10.11,39.44-6.43,50.34,7.25,3.72,4.56,5.76,9.71,5.22,15.74-.41,4.5-.62,9.01-.98,14.42,3.32-1.72,5.84-2.93,8.26-4.29,13.51-7.66,27.54-8.28,42.02-3.2,2.04.62,4.04,1.35,6,2.19,7.15,3.21,12.56,9.37,14.81,16.88,2.91,8.83,1.67,16.29-1.77,24.52-6.83,16.5-18.87,26.95-35.38,32.9-1.56.68-3.08,1.44-4.56,2.28,2.86,1.8,5.83,3.43,8.89,4.88,8.91,3.6,17.02,8.91,23.89,15.63,5.78,5.37,9.26,12.76,9.71,20.64.59,11.59-8.49,23.74-20.3,26.75-13.57,3.64-28.04,1.31-39.79-6.4-3.21-2.02-6.37-4.1-10.52-6.79-.36,2.71-.93,4.35-.72,5.89,1.9,14.11-1.08,27.56-6.2,40.51-2.37,6.05-6.81,10.33-14.14,11.34-5.33.76-10.44,1.36-15.74.21-6.69-1.36-12.56-5.32-16.34-11.01-6.32-9.27-10.42-19.35-10.59-30.75v-15.87c-1.44.58-2.82,1.3-4.12,2.17-10.86,9.58-23.14,16.45-37.47,19.09-15.51,2.86-28.72-1.24-38.9-13.76-2.75-3.42-4.67-13.8-3.11-19.37,2.01-7.16,4.62-14.08,9.36-20.08,9.92-12.4,21.63-22.18,36.95-27.13,1.02-.31,1.92-.87,4.49-2.08ZM430.27,328.55c7.7-1.43,14.27-2.48,20.78-3.88,3.11-.64,6.1-1.82,9.2-2.55,13.47-3.19,21.87-12.23,28.06-23.99,4.6-8.79,2.58-17.23-1.46-25.35-1.39-2.48-3.58-4.41-6.2-5.5-7.23-2.97-14.49-4.5-22.65-2.48-13.95,3.52-21.37,14.24-29.55,24.37-.98,5.85-5.29,9.82-8.26,14.54-3.16,5.07-3.38,6.2.58,9.92,4.13,3.97,7.91,8.03,9.5,14.92ZM362.6,339.7c-1.06-.33-2.13-.61-3.21-.83-10.67-1.56-20.29,2.48-29.63,6.45-12.4,5.22-21.69,14.38-27.84,26.51-2.68,5.41-3.9,11.43-3.53,17.45.2,4.75,2.16,8.18,7.04,9.31,3.07.76,6.18,1.36,9.31,1.8,10.73,1.31,19.94-3.61,29.3-7.61,3.21-1.44,6.16-3.39,8.74-5.78,6.82-6.17,12.75-13.26,17.6-21.07,1.09-2.02,2.02-4.12,2.8-6.27-2.37-3.45-4.69-6.2-6.3-9.3-1.62-3.48-3.05-7.04-4.29-10.67h0ZM402.45,303.62c1.25-1.98,2.35-4.05,3.28-6.2,3.21-8.68,5.97-17.45,9.41-26.03,3.15-7.85,2.67-16.02,3.01-24.11-.06-2.09-.66-4.13-1.75-5.91-4.28-7.66-19.67-12.4-27.51-8.68-.65.31-1.25.73-1.76,1.24-8.42,8.19-14.22,17.63-12.42,30.02,1.59,10.98,5.44,21.31,10.18,31.26,3.84,8.12,7.16,9.57,17.55,8.4ZM422.72,353.68c2.48,6.78,6.98,11.3,11.16,16.11,9.36,11.19,22.08,19.06,36.27,22.45,6.62,1.8,13.7-.05,18.59-4.86,3.11-2.56,4.23-6.83,2.78-10.59-2.62-7.44-6.38-13.98-13.14-18.74-12.4-8.68-26.28-13.64-40.78-17.12-2.65-.63-5.58-.09-8.54-.09l-6.33,12.83ZM408.45,365.16l-19.18,1.67c-8.14,20.21-11.23,39.88-.86,59.78.89,1.92,1.99,3.74,3.27,5.43,3.32,3.97,7.88,6.74,12.85,6.32,5.45-.47,7.64-5.39,9.61-10.16,3.31-8.03,4-16.4,4.65-24.89,1.07-13.88-2.69-26.33-10.35-38.15h0ZM377.18,307.72c-4.09-4.96-7.75-9.68-11.83-14.06-2.86-3.06-5.96-6.37-9.58-8.22-8.16-4.12-16.75-7.44-25.18-10.97-.98-.4-2-.7-3.05-.88-8.58-1.54-14.48,3.33-14.87,11.97-.24,5.93,1.24,11.16,5.39,15.53,4.81,5.12,8.76,11.38,15.72,13.83,7.98,2.81,16.19,5.03,24.32,7.44,3.07.88,6.2,1.33,9.41-.59l9.67-14.06ZM416.06,332.31c.28-4.98-1.67-9.82-5.33-13.2-3.35-3.27-7.44-3.31-11.66-3.89-8.5-1.17-15.38,3.98-17.96,11.55-1.59,4.28-2.7,8.72-3.31,13.25-.56,5.32,2.01,9.5,6.93,11.99,8.19,4.15,16.81,2.69,23.01-4.14,4.25-4.74,7.98-9.85,8.33-15.56h0Z"/>
      <path class="st7" d="M430.27,328.55c-1.59-6.89-5.37-10.96-9.54-14.87-3.97-3.72-3.72-4.88-.58-9.92,2.96-4.72,7.28-8.68,8.26-14.54,8.18-10.13,15.61-20.85,29.55-24.37,8.16-2.05,15.42-.52,22.65,2.48,2.62,1.09,4.8,3.03,6.2,5.5,4.04,8.12,6.06,16.56,1.46,25.35-6.2,11.75-14.53,20.8-28,23.99-3.1.73-6.09,1.91-9.2,2.55-6.52,1.29-13.09,2.45-20.79,3.83Z"/>
      <path class="st7" d="M362.6,339.69c1.22,3.63,2.63,7.19,4.23,10.67,1.61,3.11,3.93,5.85,6.3,9.3-.78,2.16-1.71,4.25-2.8,6.27-4.86,7.81-10.78,14.9-17.6,21.07-2.58,2.39-5.53,4.34-8.74,5.78-9.36,4-18.59,8.92-29.3,7.61-3.13-.44-6.24-1.04-9.31-1.8-4.88-1.13-6.84-4.56-7.04-9.31-.37-6.04.85-12.07,3.55-17.49,6.2-12.14,15.42-21.3,27.84-26.51,9.33-3.93,18.95-8.01,29.63-6.45,1.1.23,2.19.51,3.26.86Z"/>
      <path class="st7" d="M402.45,303.62c-10.39,1.17-13.71-.29-17.55-8.38-4.74-9.92-8.59-20.28-10.18-31.26-1.8-12.4,4-21.85,12.4-30.16.51-.51,1.11-.93,1.76-1.24,7.83-3.72,23.23,1.08,27.51,8.74,1.12,1.8,1.74,3.87,1.8,5.99-.35,8.09.14,16.26-3.01,24.11-3.43,8.55-6.2,17.35-9.41,26.03-.95,2.14-2.05,4.2-3.31,6.17Z"/>
      <path class="st7" d="M422.72,353.68l6.31-12.78c2.96,0,5.89-.55,8.54.09,14.5,3.46,28.42,8.38,40.82,17.17,6.76,4.76,10.52,11.28,13.14,18.74,1.46,3.76.34,8.03-2.78,10.59-4.9,4.81-11.97,6.65-18.59,4.86-14.19-3.39-26.91-11.26-36.27-22.45-4.19-4.91-8.63-9.43-11.17-16.21Z"/>
      <path class="st7" d="M408.45,365.16c7.66,11.83,11.42,24.27,10.35,38.2-.64,8.49-1.34,16.86-4.65,24.89-1.97,4.77-4.15,9.69-9.61,10.16-4.96.42-9.53-2.36-12.85-6.32-1.28-1.69-2.38-3.51-3.27-5.43-10.38-19.91-7.29-39.58.86-59.78l19.18-1.72Z"/>
      <path class="st7" d="M377.18,307.72l-9.61,14.01c-3.22,1.92-6.33,1.48-9.42.59-8.13-2.36-16.34-4.57-24.32-7.44-6.95-2.48-10.91-8.68-15.72-13.83-4.15-4.4-5.63-9.61-5.39-15.53.33-8.68,6.2-13.51,14.87-11.97,1.05.18,2.07.48,3.05.88,8.43,3.58,17.02,6.85,25.18,10.97,3.72,1.85,6.72,5.16,9.58,8.22,4.03,4.43,7.69,9.2,11.78,14.11Z"/>
      <path class="st8" d="M416.06,332.31c-.35,5.7-4.08,10.82-8.38,15.56-6.2,6.83-14.76,8.29-22.96,4.14-4.96-2.48-7.44-6.67-6.93-11.99.61-4.53,1.72-8.97,3.31-13.25,2.58-7.57,9.46-12.72,17.95-11.55,4.23.58,8.32.62,11.66,3.89,3.66,3.38,5.62,8.22,5.34,13.2Z"/>
    </g>
  </g>
</svg>