<?xml version="1.0" encoding="UTF-8"?>
<svg id="Layer_1" xmlns="http://www.w3.org/2000/svg" xmlns:serif="http://www.serif.com/" version="1.1" viewBox="0 0 110 135">
  <!-- Generator: Adobe Illustrator 30.2.1, SVG Export Plug-In . SVG Version: 2.1.1 Build 1)  -->
  <defs>
    <style>
      .st0 {
        fill: #2f4f3a;
        fill-rule: evenodd;
      }
    </style>
  </defs>
  <path class="st0" d="M48.72,89.48c-1.29-3.44-1.59-7.54-1.84-11.17-.44-6.33-.09-12.29,1.82-18.41,3.42-11.01,11.88-19.86,21.39-25.99,5.06-3.26,10.52-5.83,16.18-7.83,1.26-.44,2.52-.9,3.82-1.23,0,0,1.1-.38,1.19-.31.58.45.69,2.68.82,3.36.67,3.39,1.08,6.84,1.75,10.24,2.64,13.57,4.35,27.91-5.49,39.23-2.07,2.38-4.39,4.56-6.94,6.43-5.35,3.92-11.24,6.05-17.48,8.05-1.35.44-2.71.86-4.07,1.27-.15.05-1.22.47-1.29.38-.08-.11.53-.94.6-1.05.71-1.05,1.52-2.02,2.38-2.96,3.88-4.28,7.45-8.92,10.16-14.04,2.78-5.27,5.19-10.64,6.61-16.43.46-1.89.87-3.8,1.23-5.72.11-.62.2-1.24.31-1.86.05-.3.1-.6.15-.9.01-.09.05-.36.04-.27-.39,3.37-1.67,6.82-2.88,9.97-3.32,8.62-8.01,16.06-14.93,22.27-3.34,3-7.35,6.17-11.72,7.55"/>
  <path class="st0" d="M43.15,88.13c-5.1.51-10.95-.58-15.31-3.36-1.97-1.26-3.93-2.32-5.58-3.97-3.34-3.32-5.65-7.72-6.71-12.38-.98-4.31-.76-9.01.54-13.24.45-1.47,1.02-2.88,1.8-4.2.26-.45.53-.91.81-1.35.12-.2.31-.8.39-.58.44,1.12.62,2.15,1.35,3.17,3.34,4.64,9.39,6.32,13.99,9.33,2.7,1.76,4.94,4.34,6.63,7.08,2.2,3.57,3.28,8.15,3.66,12.3.09,1.02.08,2.01-.04,3.02-.02.22-.05.44-.08.66-.01.14.09.46-.04.42-.31-.1-.76-1.22-.92-1.5-.75-1.3-1.44-2.61-2.36-3.8-2.51-3.25-6.44-4.6-9.76-6.78-1.21-.79-2.28-1.88-3.12-3.05-.29-.4-.55-.81-.8-1.24-.09-.15-.2-.61-.25-.45-.09.33.37,1.12.5,1.42.61,1.37,1.26,2.78,2.06,4.04,3.31,5.18,9.37,7.43,12.24,12.98"/>
</svg>